<?xml version="1.0" encoding="utf-8"?>
<!-- Generator: Adobe Illustrator 22.0.0, SVG Export Plug-In . SVG Version: 6.00 Build 0)  -->
<svg version="1.1" id="Layer_1" xmlns="http://www.w3.org/2000/svg" xmlns:xlink="http://www.w3.org/1999/xlink" x="0px" y="0px"
	 viewBox="0 0 1013.2 1057" style="enable-background:new 0 0 1013.2 1057;" xml:space="preserve">
<style type="text/css">
	.st0{display:none;}
	.st1{display:inline;fill:#D6D6D6;stroke:#FFFFFF;stroke-miterlimit:10;}
	.st2{display:inline;}
</style>
<g id="Layer_2_1_" class="st0">
	<rect y="0.3" class="st1" width="1013.2" height="1056.7"/>
</g>
<g id="Layer_1_1_">
	<g transform="translate(0.000000,960.000000) scale(0.100000,-0.100000)">
		<path d="M3796.8,9594c-643-38-1014-70-1048-91c-6-4-24-8-40-10c-47-5-286-80-377-119c-47-19-87-36-90-36c-36-4-266-116-363-177
			c-207-129-335-218-451-311c-109-89-396-406-396-439c0-5-4-11-8-13c-18-7-114-184-142-263c-4-11-13-33-20-50c-7-16-15-38-17-49
			c-2-10-14-62-28-115c-13-53-31-142-40-196c-15-97-69-312-86-347c-16-30-128-391-153-493c-14-55-27-122-30-150c-2-27-5-50-6-50
			c-4,0-10-90-16-271c-7-214,2-334,37-499c13-61,19-132,19-220c0-71,5-148,11-170s14-157,19-300c8-274,17-330,69-449
			c26-60,116-150,184-186c36-18,42-30,56-115c16-91,65-286,92-361c11-32,24-81,29-109c12-69,33-139,44-147c16-11,17-100,1-149
			c-18-53-64-101-117-124c-21-8-38-21-38-27c0-7-16-39-36-71c-27-43-34-65-29-84c3-14,8-59,10-102c2-42,10-92,18-111
			c14-31,13-38-1-65c-23-40-20-311,3-355c13-25,13-33,0-70c-23-65-20-263,4-316c16-35,17-45,6-71c-21-50-17-215,6-263
			c10-21,19-54,19-73s7-40,15-47c21-18,19-29-9-36c-25-6-32-16-67-104c-13-30-33-71-45-91c-29-47-84-177-84-198c0-10-3-21-7-25
			c-5-4-9-12-9-17c-1-5-2-10-4-11c-1-2-3-10-5-18s-13-49-24-91c-40-156-49-296-27-450c11-79,55-218,88-277c17-32,36-66,42-77
			c40-75,93-137,146-174c34-22,63-41,67-41c12,0,139-96,205-155c95-86,237-154,328-158c86-3,140,40,140,113c0,16-16,78-35,137
			s-35,112-35,118c0,7,55,10,168,10c139,0,171,3,191,17l23,16l-43,32c-24,18-78,49-119,70c-145,73-233,178-266,315
			c-7,31-6,263,1,276c8,12,8,153,1,364c-5,120-10,153-36,234c-16,52-30,99-30,106c0,6-10,29-21,50c-13,24-22,62-24,95
			c-7,167-4,477,4,555c6,50,8,122,6,160c-3,39-7,147-10,240c-3,110-10,187-20,219c-8,27-15,59-15,71c0,16-15,31-51,53
			c-41,26-55,42-75,89c-14,32-29,65-34,73c-66,107-65,103-69,190c-2,47,5,151,14,233c16,132,16,149,3,165c-17,19-111,346-133,463
			c-7,41-21,112-29,159c-11,56-16,142-16,250c1,198,21,289,89,393c22,35,41,66,41,70c0,17,102,156,127,172c15,10,57,44,94,76
			c83,74,162,115,269,140c48,11,94,29,106,40s43,23,70,28s84,25,127,45s92,36,109,36c39,0,151,29,159,41c3,5,28,11,55,13s67,8,89,14
			c34,9,190,29,300,37c17,2,68,10,115,18c130,24,438,37,825,35c193,0,385,0,427,1c46,1,114-7,169-19c78-17,113-19,219-14
			c95,5,149,3,220-9c102-18,201-32,320-47c41-5,97-16,125-24c109-30,185-46,227-46c23,0,64-7,90-15s76-17,110-21c35-3,99-21,143-39
			s142-47,217-64c123-28,144-36,210-80c41-28,97-61,125-75s56-33,63-41s17-15,22-15s21-11,36-26c15-14,59-45,97-69
			c67-43,207-182,251-250c41-65,156-199,182-212c34-18,39-26,47-82c15-104,71-269,122-359c37-65,38-70,37-162c0-90-3-99-38-170
			c-34-66-38-80-33-126c3-29,13-64,23-79c29-44,142-83,159-55c3,5,30,10,58,10c71,0,119-32,143-97c10-27,21-53,26-59
			c9-12,19-57,44-199c9-49,22-103,29-120c16-36,58-261,80-435c9-69,22-150,30-180c7-30,17-77,21-105c7-52,98-263,133-312
			c11-16,30-55,41-88c32-89,52-136,76-175c11-19,25-46,29-60s17-38,29-55c28-39,45-75,49-100c1-12,13-35,25-52s22-36,22-43
			c0-24,64-102,182-222c96-97,137-131,188-156c67-33,123-64,270-147c92-52,230-115,252-115c7,0,45-16,84-35c229-113,671-36,1024,178
			c36,22,67,43,68,48c2,5,10,9,18,9s14,5,14,10c0,6,5,10,11,10c15,0,48,41,49,61c0,13-26,15-230,11c-248-5-261-2-203,44
			c17,13,24,26,20,37c-7,18-15,20-135,36c-182,23-395,120-522,237c-54,51-170,192-170,207s35,5,67-19c41-31,199-110,318-158
			c50-20,98-41,107-46c10-6,24-10,32-10c7,0,27-7,42-15c39-20,74-19,74,2c0,9-24,39-54,67c-29,28-80,76-112,106
			c-33,31-78,78-102,105c-23,28-54,62-67,77c-14,15-25,29-25,32s-14,20-31,38c-65,71-305,451-324,516c-9,29,10,29,77-2
			c68-32,165-59,184-52c27,10,15,50-27,91c-23,22-60,65-83,95s-44,57-48,58c-5,2-8,10-8,18s-4,14-9,14s-14,12-20,28
			c-7,15-21,45-33,67c-60,115-159,433-160,518c0,20-4,39-8,42c-5,3-6,14-3,24s0,22-6,25c-6,4-11,25-11,47c0,53-61,320-98,434
			c-27,82-64,164-127,282c-36,70-158,223-247,310c-101,99-213,175-353,243c-82,39-108,56-117,77c-6,16-28,66-50,112
			c-24,53-44,116-54,173c-21,123-35,158-109,269c-71,107-137,171-204,200l-44,20l7,92c4,50,11,110,16,132s20,132,35,245
			c45,353,50,648,16,861c-17,105-58,256-86,316c-14,30-25,62-25,70c0,7-5,19-10,26c-6,7-35,62-66,122c-30,61-70,137-90,170
			c-19,33-40,72-47,88c-6,15-15,27-19,27s-8,4-8,9c0,10-150,231-176,261c-7,8-39,47-70,85c-59,73-361,375-375,375c-5,0-16,8-26,18
			c-37,38-113,93-253,185c-80,53-150,100-156,105s-20,13-32,16c-12,4-28,13-34,20c-12,11-376,194-443,221c-145,61-319,122-424,149
			c-70,17-132,35-139,40c-6,4-16,5-21,1c-5-3-12-1-16,5c-3,5-21,10-38,10c-18,0-81,9-142,20C4430.8,9578,3995.8,9606,3796.8,9594z
			 M4341.8,9445c184-13,421-53,540-89c25-8,81-24,125-36c81-22,124-35,160-50c11-5,38-14,60-21c22-6,47-17,55-24s71-38,140-69
			c163-74,339-162,418-208c34-21,65-38,68-38c8,0,98-64,102-72c2-4,20-17,40-29c67-41,266-187,312-230c105-97,170-161,170-166
			c0-4,19-27,80-92c104-112,180-217,180-248c0-28-27-30-91-7c-84,29-226,53-355,58c-289,12-454,25-774,61c-58,7-173,30-274,55
			c-52,13-83,17-90,10c-6-6-4-11,5-14c8-3,41-14,74-25c122-43,412-91,695-116c187-16,355-38,460-60c177-37,411-138,492-213
			c93-86,238-422,253-587c2-27,9-93,14-145c6-52,11-132,11-177c0-101-10-106-79-35c-89,91-316,244-381,257c-11,2-37,13-58,24
			c-55,28-119,51-147,51c-13,0-27,5-30,10c-3,6-17,10-31,10c-46,0-23-33,46-67c36-18,68-33,72-33c18,0,169-78,221-114
			c139-95,329-287,358-362c12-33,4-280-13-379c-5-33-16-113-23-178s-15-121-18-124c-15-14-52,16-121,97c-251,293-538,510-810,610
			c-74,27-229,67-316,80c-75,11-572,10-750-2c-47-4-153-9-237-13c-113-6-153-11-157-21c-3-7-1-16,3-18c4-3,145-8,312-11
			c321-6,508-17,677-41c111-15,298-58,347-79c17-7,70-29,119-49c116-48,174-78,271-139c85-54,327-263,347-300c6-12,41-56,78-98
			c88-99,242-304,269-357c21-41,30-132,12-132c-5,0-31,30-58,68c-71,96-130,158-240,254c-86,75-263,208-276,208c-3,0-35,18-71,40
			s-70,40-74,40c-5,0-31,12-58,26c-164,88-373,180-431,189c-21,4-55,13-76,21c-43,16-57,18-57,6c0-5,19-15,41-22c23-8,47-19,53-26
			c6-6,54-29,106-51c179-77,304-142,322-168c5-6,8-6,8,0s4,5,8-1c4-7,58-46,120-88c206-138,392-305,515-459c79-99,52-87-65,30
			c-118,116-309,268-390,309c-58,29-58,29-58,0c0-19,25-44,113-114c166-132,395-377,373-399c-3-3-54,41-112,98
			c-149,146-152,149-224,204c-36,27-67,52-70,55c-8,8-202,136-226,148c-12,6-24,8-28,5c-3-3-6-1-6,5c0,7-9,12-20,12s-20,4-20,10
			c0,5-3,9-7,8c-5-1-30,9-58,24c-27,14-71,33-97,43c-27,10-48,22-48,26c0,5-11,9-25,9c-15,0-39,7-56,15c-16,9-34,13-39,10
			c-6-3-10-1-10,5s-4,8-10,5s-10-1-10,5c0,7-7,10-15,6c-8-3-15-2-15,2c0,24-750,205-778,188c-4-2-72,5-152,15c-256,33-740,52-815,32
			c-40-11-40-11-8-12c17,0,34-5,37-10c3-4,85-14,183-20c351-24,776-88,1044-156c31-8,75-17,98-20c97-12,557-180,569-208
			c2-4,8-5,13-1c5,3,9,0,9-5c0-6,9-11,20-11s20-5,20-11c0-5,5-7,10-4c6,3,10,1,10-4c0-6,7-11,15-11s15-4,15-8c0-5,6-9,13-9
			c19,0,147-65,147-75c0-4,7-8,15-8s15-3,15-8c0-4,9-12,20-17c26-13,161-105,182-125c10-8,30-24,45-35c30-22,228-218,256-253
			c9-12,17-26,17-31s4-11,8-13c12-4,92-125,92-137c0-6,5-11,10-11c6,0,10-6,10-14s6-21,13-28c37-40,59-109,38-123c-13-8-41,23-41,46
			c0,10-3,19-7,19c-5,0-21,26-38,58c-16,31-32,59-36,62c-3,3-13,21-22,40c-22,46-41,70-56,70c-6,0-11,9-11,19c0,11-9,23-20,26
			s-20,11-20,16s-13,23-30,41c-16,17-30,35-30,39c0,5-7,9-15,9s-15,4-15,9s-11,11-25,13c-22,5-25,3-19-16c9-28,43-76,55-76
			c5,0,9-6,9-14s4-16,8-18c9-4,72-96,72-106c0-4-25,19-55,51s-55,60-55,63c0,14-203,212-280,274c-95,75-267,190-287,190
			c-7,0-13,4-13,9c0,23-317,137-475,171c-55,12-107,25-115,27c-8,3-28,7-43,9c-16,1-34,7-40,12c-7,5-39,12-71,16c-33,4-66,11-73,17
			s-19,9-28,6c-8-4-17-2-20,2c-6,11-135,34-143,27c-3-3-11-1-19,5c-7,6-22,9-33,6s-22-1-25,4c-3,4-25,8-48,7c-24,0-57,3-73,6
			c-74,16-520,56-899,80c-249,16-822,25-841,14c-6-4-100-10-210-13c-109-4-206-9-214-12c-8-2-48-6-89-9c-41-2-80-9-86-14
			c-7-5-15-7-18-4c-8,9-207-17-207-27c0-4-9-6-20-4s-22,0-25-6c-4-5-24-9-45-9s-42-4-45-10c-3-5-18-10-31-10c-14,0-60-9-102-19
			c-43-11-88-22-102-25s-36-8-50-11c-14-4-34-8-45-9c-11-2-20-4-20-5c0-2-11-5-25-7c-103-19-366-119-513-196
			c-159-83-341-226-418-328c-45-61-99-169-99-200c0-39,30-20,59,38c44,88,144,212,170,212c31,0,13-46-42-105c-35-37-106-199-128-290
			c-16-64-22-124-23-208c-1-99-3-117-16-115c-29,6-71,106-97,231c-23,112-24,135-18,276c5,123,11,167,29,216c42,115,150,241,336,390
			c125,101,233,167,363,224c195,85,731,227,967,256c223,28,359,46,455,60c55,8,135,18,178,21c42,4,77,11,77,15c0,5,12,10,28,10l27,1
			l-30,8c-51,13-274,10-400-5c-66-8-167-20-225-26c-57-6-179-24-270-40c-91-15-205-35-255-44c-49-8-98-20-107-25c-10-6-25-10-35-10
			c-94,0-663-224-663-261c0-6-4-7-10-4c-5,3-10,1-10-5s-5-8-10-5c-6,3-13-1-16-9c-3-9-10-13-15-10s-12-2-15-10c-3-9-10-13-15-10
			s-9,1-9-4s-24-26-52-45c-136-95-190-136-219-170c-17-20-35-37-40-37c-4,0-20-11-35-25c-43-40-59-22-73,82c-23,165-30,218-46,318
			c-8,57-15,166-15,253v153l103,106c155,160,298,271,558,434c70,44,204,115,259,138c100,41,240,102,265,115c17,9,37,16,45,16
			c8,1,53,14,100,30c47,17,99,30,117,30c17,0,33,4,35,8c4,10,199,55,236,54c15,0,31,3,37,6c5,3,18,7,30,8c11,1,67,12,125,23
			c311,61,732,84,1125,61c116-7,239-14,275-15c143-6,652-103,765-145c65-25,96-34,238-71c80-21,94-21,84,4c-7,19-214,106-271,113
			c-25,4-46,10-46,15s-7,6-15,3c-8-4-15-1-15,5s-7,8-16,4c-9-3-19-2-23,3c-3,6-42,18-86,28s-119,29-167,42s-100,24-117,24
			c-34,0-114,15-186,35c-304,85-1312,81-1685-6c-114-27-154-35-226-48c-34-6-90-20-125-32c-35-11-99-29-141-39c-43-10-82-21-88-25
			c-5-3-18-8-27-10c-10-2-60-22-111-44c-51-23-98-41-103-41c-23,0-201-88-306-152c-61-37-116-68-122-68s-11-4-11-9s-13-14-29-21
			c-16-6-37-19-48-28c-10-9-41-33-68-52c-28-19-59-42-70-51c-11-10-44-37-74-61c-29-23-66-54-82-67c-34-28-59-22-59,16
			c0,44,76,282,118,368c48,98,89,201,97,240c3,17,12,59,20,95c9,36,20,104,25,152c15,137,59,286,123,413c45,90,153,249,196,288
			c35,31,165,90,223,101c13,3,24,5,26,7c1,1,5,2,10,3c4,1,16,5,27,9c18,6,40,10,100,22c11,2,34,6,50,9c301,58,511,67,905,38
			c80-6,213-14,295-17c83-4,222-10,310-13c88-4,182-5,210-2l50,6l-70,8c-204,22-676,98-730,117c-48,17-204,39-275,39
			c-37,0-71,5-77,11c-16,16-406,24-503,11c-41-6-112-16-157-23c-136-21-132-15,92,135c216,145,519,292,750,363
			c340,105,427,121,835,159C3807.8,9459,4056.8,9466,4341.8,9445z M7315.8,5726c37-27,139-181,165-250c11-29,23-82,27-117
			c4-43,19-89,44-139c56-115,74-188,73-310c0-59-7-138-16-180c-17-77-74-202-108-239c-10-11-19-24-19-29c0-18-371-380-414-404
			c-29-16-18,18,23,69c21,26,82,97,135,157c53,59,109,127,124,150c15,22,29,43,33,46c3,3,24,37,47,75c42,72,78,177,67,195
			s-30,11-47-17c-9-16-25-37-35-48s-31-37-47-58c-35-48-55-37-30,17c10,20,21,36,26,36c4,0,8,5,8,11s12,34,26,62
			c31,62,54,155,54,220c0,40-3,47-19,47c-14,0-27-19-51-77c-18-43-46-100-63-128c-35-55-124-155-139-155c-10,0,26,65,50,89
			c57,59,134,307,116,377c-11,45-31,24-69-73c-20-54-55-128-77-164c-41-71-151-184-168-174c-5,3,12,34,39,68c49,62,104,163,141,258
			c82,208,102,523,40,641c-21,41-26,73-10,63c6-3,10-2,10,4C7251.8,5762,7278.8,5752,7315.8,5726z M7827.8,4859
			c206-113,366-263,468-439c84-146,166-347,166-410c0-17,4-39,10-49c5-10,11-31,14-47c9-50,64-337,75-389c21-102,41-181,56-224
			c16-47,20-81,8-81s-48,118-88,285c-79,330-98,404-125,500c-111,395-305,655-595,800c-68,34-80,44-83,68c-2,15,2,27,8,27
			S7786.8,4881,7827.8,4859z M7881.8,4642c142-116,280-321,353-528c50-141,109-393,121-519c3-27,10-75,15-105c6-30,13-75,15-100
			c5-52,48-302,70-405c8-38,12-73,10-76c-2-4,0-10,5-14c6-3,13-27,17-53c8-49,10-57,14-69c1-5,3-12,5-18c1-5,3-12,4-15
			c2-3,4-14,5-25c6-41,37-143,67-220c63-161,79-206,79-218c-1-25-86,82-123,154c-47,93-118,290-147,407c-21,83-54,36-41-59
			c10-77,53-243,83-319c150-388,366-631,718-810c25-12,53-26,62-31c10-5,24-9,32-9c7,0,19-7,26-15c11-13,7-15-24-15
			c-36,0-257,75-328,111c-70,36-80,13-19-47c103-103,405-234,540-234c136,0,205-31,101-45c-144-20-487,28-609,85
			c-76,36-101,38-101,10c0-31,35-60,128-108c45-24,82-47,82-52c0-21-166,33-222,71c-14,11-29,19-33,19c-18,0-160,133-219,205
			c-22,27-44,52-47,55s-30,43-61,90c-89,135-206,379-271,565c-63,182-127,415-142,525c-8,51-36,130-47,130c-5,0-8-41-8-90
			c0-96,38-312,87-490c46-171,42-189-19-90c-34,55-68,78-68,47c0-17,29-104,47-136c7-15,13-32,13-40c0-18,109-271,125-291
			c7-8,32-51,55-95s49-88,58-98c8-9,13-20,10-22c-20-21-215,264-288,421c-55,117-120,274-114,274c3,0-2,7-10,16c-9,8-16,26-16,39
			s-4,27-10,30c-5,3-10,15-10,27c0,11-6,34-13,51c-18,43-35,95-42,132c-3,17-16,64-29,105c-48,149-74,78-41-110c18-102,18-113,4-108
			c-31,10-107,325-113,463c0,17-4,35-7,40c-3,6-6,26-8,45c-2,41-30,202-73,425c-16,88-32,171-35,185c-2,13-8,29-14,36
			c-5,6-6,13-4,16c14,13-65,195-139,323c-37,64-39,70-25,94c27,48,53,39,95-31c89-146,107-198,194-583c23-99,43-181,45-183
			c25-25,25,109,1,292c-8,61-29,171-46,245c-35,154-33,141-20,141c26,0,67-99,96-230c17-77,58-336,74-470c22-184,76-468,102-532
			c10-28,38-39,38-15c0,6-6,48-13,92c-8,44-12,95-11,113c1,17-2,35-7,38s-9,38-9,79c0,42-5,77-11,80c-6,4-10,30-9,59c1,28,1,56,0,61
			c-1,6-1,24-1,40c2,36-24,264-45,394c-24,152-73,317-124,416c-36,71-20,100,27,48c60-68,130-249,183-478c14-61,18-65,36-40
			c17,23,13,87-13,220c-9,44-17,87-17,95c-1,9-5,21-10,28c-4,6-4,17-1,22c3,6,1,10-4,10c-6,0-11,11-11,25c0,25-68,177-82,183
			c-5,2-8,10-8,17c0,8-6,20-13,27c-38,40-127,164-127,178c0,9,5,21,12,28s17,31,24,55c18,61,44,130,56,144
			C7725.8,4742,7810.8,4699,7881.8,4642z M1071.8,3478c40-101,83-178,120-215c64-64,55-77-55-81c-58-1-99,2-115,11
			c-37,19-52,76-48,188c3,106,14,129,58,129C1053.8,3510,1061.8,3503,1071.8,3478z M1281.8,3086c0-8,6-16,13-18c8-3,13-39,15-120
			c4-115,4-115-24-137c-24-18-39-21-136-21c-60,0-118,5-128,10c-26,14-40,70-40,163c0,85,10,113,43,127c12,5,75,9,140,9
			C1259.8,3100,1281.8,3097,1281.8,3086z M8845.8,2415c27-39,76-100,109-137c80-92,57-86-33,8c-109,115-222,302-268,445
			c-24,71-10,51,66-96C8761.8,2552,8818.8,2453,8845.8,2415z M1278.8,2671c38-32,56-159,31-227c-17-49-53-64-148-64
			c-90,0-143,18-162,54c-15,27-11,205,5,224c20,25,50,31,152,31C1239.8,2689,1260.8,2686,1278.8,2671z M1274.8,2266
			c35-17,50-71,43-159c-10-130-40-153-191-145c-85,5-120,19-129,53c-3,11-6,66-6,122c0,98,1,102,28,125c26,22,33,23,132,17
			C1209.8,2276,1264.8,2270,1274.8,2266z M1065.8,1838c-4-13-18-40-30-60c-13-21-24-42-24-48c0-5-3-10-8-10c-8,0-29-43-42-89
			c-5-20-5-31,1-31c12,0,69,61,69,73c0,4,5,5,10,2c6-3,10-24,10-46c0-28,4-39,15-39c17,0,35,38,35,74c0,28,38,79,52,70
			c7-5,8-38,4-98c-20-292-20-286-4-286c18,0,68,148,68,201c0,57,12,139,20,134c4-2,19-38,34-79c20-54,32-73,42-69c16,6,19,56,4,83
			c-6,10-12,31-14,47c-3,28-6,37-35,108c-9,22-16,48-16,57c0,40,23,16,68-73c67-133,98-321,77-464c-26-172-32-244-33-350
			c-1-139,12-201,52-266c17-28,29-54,26-57s-26,16-51,43c-47,49-94,137-99,184c-1,14-6,34-10,43c-4,10-8,115-8,235
			c-2,186-4,218-17,218c-20,0-48-102-49-177c-1-31-6-60-11-63c-15-9-12-221,4-285c24-91,74-210,97-230c8-7,25-38,81-151
			c49-99,78-193,78-253c0-20,5-36,10-36c6,0,10-11,10-24c0-41-28-39-73,4c-22,22-49,40-58,40c-25,0-49,39-49,80c0,19-5,55-11,80
			c-7,25-13,52-14,60c-3,18-10,36-71,178c-43,101-79,203-104,300c-12,46-34,56-46,20c-23-72,2-212,66-361c85-201,99-293,38-245
			c-13,11-88,147-181,330c-23,46-63,206-72,289c-6,56,2,145,22,257c4,27,2,32-15,32c-50,0-99-118-109-263c-3-48-10-90-14-93
			c-18-11-34,85-33,201c1,134,21,239,80,420c55,169,181,405,217,405C1068.8,1860,1071.8,1855,1065.8,1838z"/>
	</g>
	<g transform="translate(0.000000,704.000000) scale(0.100000,-0.100000)" class="st0">
		<path class="st2" d="M3167,3521.8c-5-5-34-9-65-10c-180-3-718-61-892-95c-447-88-750-184-1014-322c-201-105-266-236-266-541
			c0-284,37-584,107-876c41-170,54-324,31-379l-14-34l-86-2c-50-1-93-7-101-14c-8-6-47-21-87-32c-235-65-443-256-582-534
			c-240-478-221-1073,45-1470c22-33,75-95,119-137c65-64,97-87,191-133c61-31,131-59,155-62c41-6,44-4,92,48c57,62,59,74,36,219
			c-18,115-28,136-73,155c-47,20-113,83-163,156c-194,283-168,842,54,1153c53,74,150,163,187,171c52,12,91-32,118-132
			c25-92,68-171,108-196c50-32,228-219,259-273c14-23,34-68,45-99c18-52,19-82,19-463c-1-224-5-456-11-517c-5-60-12-150-15-200
			c-7-94,9-337,28-440c11-60,43-145,57-155c4-3,23-27,41-55c19-27,109-126,200-220c91-93,198-207,237-252c167-191,380-476,566-759
			c89-136,149-200,243-260c301-192,855-290,1444-255c509,30,901,160,1096,363c29,29,112,143,185,253s179,261,235,335
			c186,247,502,600,582,651c88,56,191,189,249,323c25,58,27,70,29,261c3,221-13,429-37,493c-6,15-10,70-9,122s1,104,0,115
			c-2,11-3,119-3,240c-1,182,3,240,20,336c20,110,24,120,78,199c31,46,60,93,65,104c4,12,37,55,72,96c144,169,222,285,237,355
			c26,119,11,176-104,392c-47,89-75,188-75,266c0,23,12,96,26,162c92,435,111,558,95,619c-9,34-7,47,9,78c13,26,19,60,21,122l2,85
			l-39,48c-65,80-234,251-325,328c-101,87-284,208-389,258c-387,185-1156,335-2020,393C3913,3521.8,3180,3534.8,3167,3521.8z
			 M3545,3388.8c39-10,84-24,100-31c61-24,242-62,300-63c62-1,163,20,274,55c55,18,79,20,165,14c305-20,871-98,1066-147
			c41-10,158-39,258-64c202-51,304-85,310-105c3-9-3-11-24-8c-16,3-72,13-124,23c-74,14-125,16-230,11c-222-9-275-24-961-261
			c-153-54-234-68-311-55c-103,16-171,62-206,138c-33,73-29,177,11,245c30,50,34,77,13,77c-39,0-107-87-141-182c-27-75-49-91-118-84
			c-26,3-51,7-56,10c-4,3-21,40-36,82c-21,57-41,90-75,126c-42,43-80,62-80,39c0-5,15-40,33-77c44-94,45-177,4-247
			c-57-96-146-134-296-124c-95,5-117,12-475,141c-374,134-550,176-743,176c-356,0-628-129-766-361c-52-89-98-213-105-283
			c-4-52-3-58,13-55c11,3,29,31,50,79c43,102,105,198,165,254c79,74,93,60,31-32c-80-118-139-263-167-409c-23-123-15-394,15-507
			c43-162,131-303,243-388c116-88,237-115,482-105c247,10,384,43,603,147c295,140,507,370,603,656c42,123,59,215,67,354l6,120l38,12
			c31,9,42,8,55-3c14-12,16-30,11-129c-6-136-43-314-94-445c-19-49-41-109-48-133c-14-40-13-42,5-32c28,15,56,59,110,172
			c73,155,130,387,130,532c0,67,1,69,40,109c37,36,43,39,56,25c14-13,14-29,4-114c-6-55-13-116-16-136c-9-55,17-50,49,11
			c30,54,67,243,67,338c0,84,8,93,89,93c43,0,72-5,79-12c5-7,17-82,26-166c17-161,57-297,87-297c16,0,17,34,4,193c-5,60-4,102,1,102
			c17,0,73-39,82-57c5-10,12-60,16-112c7-106,46-291,83-396c26-73,101-223,132-264s43-16,20,42c-79,197-123,382-136,569
			c-6,97-6,97,20,109c17,8,34,8,54,2c27-9,28-12,35-104c18-216,50-353,118-496c106-224,291-410,529-532c199-102,388-150,631-158
			c208-8,307,7,411,59c294,147,429,630,299,1068c-26,85-79,196-137,281c-25,38-43,72-40,76c10,10,85-47,120-90c18-22,61-99,97-170
			c36-72,71-132,78-135c33-11-8,171-67,293c-27,56-63,109-125,178c-48,53-82,97-77,97c17,0,183-116,239-167c51-46,54-51,62-113
			c9-70,13-82,71-240c92-250,102-405,45-693c-57-284-51-337,73-608c44-96,85-196,92-222c17-70,8-148-25-197c-34-52-68-72-175-105
			c-128-40-208-93-225-152c-12-38,14-36,76,6c58,39,113,58,140,48c8-3-8-24-43-58c-31-30-77-81-102-114c-69-92-108-130-156-155
			c-40-20-55-22-140-17c-68,3-119,12-176,32c-230,78-501,88-630,22c-80-40-137-97-151-151c-10-42,21-33,82,23c52,48,140,91,185,91
			c17,0,18-3,9-20c-6-11-31-39-56-62c-54-50-109-157-129-253c-9-43-15-127-15-220c0-156-5-175-42-175c-23,0-45,35-54,86
			c-14,91-37,84-44-14c-4-49-9-68-20-69c-31-6-41,14-46,88c-3,41-7,85-10,98c-9,44-25,7-31-72c-7-94-13-104-50-91
			c-27,9-28,12-34,104c-4,52-14,142-22,200c-9,58-19,180-23,273c-6,156-14,199-28,162c-14-38-18-287-6-471c14-233,11-250-46-241
			c-21,4-57-2-95-15c-33-11-63-18-66-14c-3,3-9,61-13,129c-7,118-21,174-39,162c-5-3-12-61-16-130c-9-150-16-164-72-147
			c-57,17-101,15-152-9c-25-11-47-16-51-12s-12,58-18,118c-11,111-36,215-51,215c-11,0-21-102-21-215c0-109-6-115-77-83
			c-70,32-145,30-212-5c-29-15-58-27-65-27c-10,0-14,56-19,233c-3,127-10,245-16,260c-26,67-37,2-50-290c-4-106-11-167-19-175
			c-9-9-23-8-61,6c-67,24-154,22-221-4c-84-33-85-30-71,192c6,100,14,201,18,222c8,49-8,42-38-17c-14-27-30-98-46-211
			c-13-94-29-175-33-180c-6-6-25-4-50,4c-35,11-47,11-99-5c-32-9-64-14-70-11c-15,9-14,46,3,136c20,107,32,335,17,344
			c-17,11-37-48-45-129c-4-38-14-99-22-135s-19-99-25-140c-14-113-6-105-109-105c-105,0-99-11-71,126c25,124,37,279,22,279
			c-22,0-35-46-103-365c-12-54-16-60-41-63c-38-5-44,18-24,97c24,99,29,140,22,172c-9,42-22,36-30-13c-10-60-54-196-65-203
			c-18-11-50,6-56,30c-3,13,1,48,10,78c19,65,20,77,5,77c-5,0-15-14-21-31c-8-24-15-30-36-27c-39,5-48,29-33,89c13,48,12,53-4,65
			c-10,7-22,15-27,16c-5,2-16,35-24,73c-18,86-58,172-113,245c-22,30-41,59-41,64c0,29,183-44,217-88c10-12,30-30,46-40
			c27-18,27-18,27,3c0,73-107,163-235,197c-67,18-240,17-350-2c-49-8-138-31-197-50c-89-28-123-34-196-34c-80,0-92,3-133,29
			c-50,33-110,93-161,166c-20,28-57,69-82,93c-52,49-57,62-21,62c30,0,70-19,139-67c88-60,80,7-10,86c-38,33-69,48-159,76
			c-134,42-176,76-201,164c-15,51-15,59,4,136c11,44,52,148,91,231c38,83,77,177,86,209c20,80,19,204-4,316c-11,52-28,158-37,236
			c-25,198-15,275,72,531l66,194l-4,193c-3,180-2,194,16,214c11,12,29,21,40,19c19-3,22-12,26-83c7-106,19-108,109-22
			c101,98,221,154,441,207c46,11,89,25,94,30c16,16-11,29-59,31c-22,0-51,4-64,8c-19,5-21,8-10,18c8,6,34,16,59,23
			c25,6,79,22,120,35c71,22,130,32,395,69c61,9,229,25,375,36C3306,3412.8,3446,3414.8,3545,3388.8z M4700,1887.8
			c0-16,183-194,252-245c95-70,249-151,271-142c35,13,26,22-137,133c-41,29-111,102-104,109c3,3,34-16,69-43c109-83,202-144,244-159
			c22-7,49-20,61-28c12-7,61-25,110-39c111-33,252-43,362-27c130,19,205,59,320,169c34,33,62,56,62,51c0-12-21-48-42-73
			c-10-11-18-22-18-25c0-4-25-26-55-50c-64-51-73-80-22-73c58,9,129,67,209,172c52,67,56,56,12-31c-52-105-176-198-304-230
			c-146-36-488-5-692,63c-122,40-289,124-344,173c-7,5-25,19-40,30c-47,32-150,141-192,202c-55,82-55,84-38,77
			C4693,1898.8,4700,1891.8,4700,1887.8z M3194,1875.8c-91-155-247-293-439-387c-327-161-797-197-998-77c-66,39-101,75-152,154
			c-54,85-59,131-5,56c60-85,113-136,165-160c100-47,101-18,4,79c-67,66-113,137-89,137c5,0,10-4,10-9c0-12,108-115,152-145
			c20-13,70-37,110-52c66-24,86-27,218-28c132,0,154,2,240,28c52,16,106,34,120,41s54,28,90,46c81,40,108,58,211,138
			c57,45,77,57,69,40c-8-13-25-35-40-49c-37-34-170-135-197-149c-28-14-30-41-3-41c52,0,244,111,340,196c58,53,145,143,167,174
			C3182,1889.8,3206,1895.8,3194,1875.8z M2015,1557.8c43-12,103-20,155-21c47-1,96-4,110-8c34-10-138-25-182-16
			c-62,13-168,47-174,56C1916,1582.8,1938,1579.8,2015,1557.8z M5960,1568.8c0-10-127-47-193-57c-55-7-183,4-171,16
			c5,4,63,10,129,13c74,3,135,11,160,20C5930,1578.8,5960,1581.8,5960,1568.8z M935,1088.8c0-8-30-22-75-35c-130-38-214-89-321-195
			c-59-59-112-123-138-168c-53-90-108-228-121-307c-6-34-18-89-26-123c-16-69-18-123-5-123c12,0,21,26,21,61c0,17,8,51,19,77
			c10,26,28,81,41,122c73,244,226,453,398,543c86,45,187,63,181,32c-3-12-26-25-72-40c-37-13-89-37-116-54c-55-36-153-135-198-201
			c-86-127-158-318-188-499c-23-139-17-390,13-503c60-225,169-390,305-463c61-34,67-40,67-82c0-24,7-37,25-49c14-9,25-25,25-37
			c0-52-195,24-295,115c-144,131-247,349-285,598c-14,95-14,355,0,444c26,166,61,276,128,411c67,136,124,215,216,302
			c105,98,168,136,281,167C912,1108.8,935,1109.8,935,1088.8z M2005,100.8c3-10,9-47,11-83c3-36,8-72,11-80s7-38,8-67
			c2-29,8-61,14-71c6-11,8-22,4-25c-3-4-1-13,6-20c6-8,8-23,4-32c-4-11-2-16,4-12s9-6,8-23s2-27,8-23s8,0,4-10c-3-9-3-19,2-21
			c4-3,8-24,9-48s7-45,12-46c6-2,7-8,4-13c-3-6-2-15,3-22s22-48,38-92c37-105,114-261,167-338c23-34,52-77,65-96c24-35,30-75,13-86
			c-6-4-8-11-5-16c9-14-12-11-27,4c-7,7-17,15-23,16c-5,2-9,7-8,12c2,5-1,9-7,9c-5,0-40,38-76,85c-37,47-69,85-71,85
			c-3,0,9-25,26-55c18-31,29-60,26-65s0-12,6-16c8-5,9-3,4,6s-4,11,4,6c7-4,10-13,8-19s10-26,26-43c16-18,29-36,29-41
			c-1-4,9-13,21-20s18-12,13-13c-4,0,6-14,23-32c17-17,31-40,31-49c0-10,5-21,10-24c6-4,8-11,5-16c-4-5-1-9,6-9s9-3,6-6
			c-4-4,2-19,12-33c23-33,47-93,42-106c-3-11-9-54-15-118c-4-31-2-36,9-27c12,10,38,71,40,92c0,13,16,21,39,23c14,0,23-2,20-6
			c-4-7,52-34,70-34c13,0,17-27,19-133c1-55,6-91,12-90c6,2,9,6,7,11c-1,4,3,7,9,7s8,13,5,30c-2,18,0,30,7,30c5,0,7,3,4,7
			c-4,3-2,12,4,19c9,11,17,10,43-3c17-10,34-18,39-19c4-1,10-3,15-4c4-1,11-2,15-1c5,1,6-3,2-9c-5-8,9-15,18-8c1,1,14-9,28-22
			c21-21,26-34,26-80c0-30-3-59-7-65c-12-16-6-98,8-103c8-2,10,2,5,14c-5,13-3,15,8,9c8-4,11-4,6,0c-4,5-1,18,7,29c7,12,11,31,10,44
			c-2,13,0,21,5,18c4-3,7,10,5,29c-1,18,3,41,10,51c13,17,57,21,96,9c11-4,20-2,20,4c0,20,59,12,70-8c5-11,10-77,11-148l1-128l19,60
			c11,33,22,93,26,133c7,87,14,93,85,67c44-15,57-16,105-5c35,7,59,8,65,2c5-5,11-36,13-68c5-102,19-220,23-201c2,9,8,17,13,17
			s7,11,5,25c-3,13-1,27,3,30c5,2,7,19,6,37s2,38,7,44c4,6,7,22,5,34c-5,31,23,61,42,46c11-8,13-8,7,2c-4,7,11,3,33-9
			c50-26,112-22,166,9c68,41,67,41,80-188c3-58,10-107,16-108c5-2,6-9,3-15c-4-7,0-5,9,3c16,15,20,36,38,205c6,55,14,104,18,108
			c5,4,30-4,57-18c55-30,95-30,158,0c55,26,63,18,70-77c4-46,12-107,17-137c17-85,32-48,41,101c4,72,12,136,17,141c7,7,29,3,66-11
			c67-26,162-29,205-7c28,15,29,14,38-18c6-17,13-55,15-83c7-62,33-128,47-119c6,4,10,55,10,123c0,64,4,123,9,131c6,9,18,12,32,8
			c80-20,82-20,125,4c55,29,63,22,74-62c9-75,27-119,48-119c13,0,14,16,8,109c-8,122-10,117,64,139c103,30,96,33,121-52
			c12-41,26-73,32-69c5,3,8,48,6,107l-4,101l55,27c30,15,61,26,69,25s20-18,26-37c18-55,30-41,33,39c3,72,4,76,47,123
			c43,48,47,59,60,146c5,32,21,60,62,110c108,130,186,263,166,283c-6,6-38-26-90-93c-102-130-118-145-138-128c-8,7-15,18-15,24
			s31,55,69,109c86,121,158,260,205,394c45,129,102,386,116,523c15,139,26,180,49,180c10,0,24-7,32-16c16-19,5-104-46-363
			c-37-184-42-235-23-229c20,7,74,168,118,353c24,99,48,186,53,193c14,18,51,15,75-8c26-24,26-20,7-135c-16-94-20-597-6-660
			c14-61,29,7,45,210c30,356,53,528,74,562c10,17,121,38,133,26c6-6,3-63-6-139c-8-71-15-181-15-244c0-131,26-480,40-555
			c18-87,25-469,10-533c-32-145-92-232-318-465c-207-212-316-338-466-535c-60-78-115-142-122-142c-9,0-14,11-14,29
			c0,39,44,188,86,291c24,60,31,87,23,95c-32,31-162-203-198-355c-11-47-32-137-46-200c-84-361-310-519-887-621
			c-181-32-187-33-513-34c-181,0-334,2-340,4c-5,3-21,7-35,8c-74,7-129,13-160,18c-19,3-53,7-75,10c-61,6-127,22-246,61
			c-140,45-209,76-289,129c-166,111-232,228-295,525c-15,69-38,154-52,190s-25,71-26,78c0,6-4,12-8,12c-5,0-5,7-2,17c4,11,3,14-5,9
			c-7-4-13-1-13,6c-4,39-18,70-30,62c-5-3-6,1-3,9c7,19-66,81-80,67c-6-6-4-16,7-27c8-10,15-20,15-23c-3-15,15-49,23-45c5,3,6-1,3-9
			c-4-10-1-16,7-16c7,0,9-3,6-7c-4-3-1-13,6-21c10-13,9-14-1-8c-11,7-11,4,0-15c7-13,17-27,21-30c5-3,8-8,7-10s1-11,4-19
			c16-48,26-101,26-142c0-44-2-48-24-48c-25,0-37,14-82,97c-15,26-31,53-37,58c-7,7-7,5-2-5c5-9,4-12-1-7s-9,12-9,15
			c0,16-47,81-57,79c-6-1-12,6-13,15c-2,10-15,28-29,41s-26,29-26,35c0,5-16,24-35,41s-35,35-35,40s-18,25-40,45s-37,36-34,36
			c4,0-69,78-162,173c-238,243-299,330-339,487c-24,92-22,295,4,491c12,85,23,194,26,242c2,48,7,92,10,98c4,5,5,34,4,64s0,58,4,62
			c9,8,9,207,1,216c-3,3-8,38-10,78c-2,39-9,100-14,134c-12,73-6,95,24,95c41-1,101-19,112-35c12-16,32-111,40-190c2-22,7-56,11-75
			c8-47,12-89,17-185c2-44,5-80,6-80s4-34,6-75s5-88,7-105c3-16,5-36,6-42c0-7,5-13,9-13c9,0,9-1,18,85c9,89,12,375,5,380
			c-4,2-5,32-4,67c2,35,0,70-3,78s-7,38-9,65c-1,28-6,58-10,67c-9,23,36,68,69,68c22,0,27-7,41-52c8-28,15-58,15-65s3-13,8-13
			c4,0,8-12,8-27c1-16,4-39,8-53c3-14,11-48,17-77c7-29,16-50,20-47c4,2,8-4,7-13c0-24,8-58,21-81c6-11,7-22,4-26c-3-3-1-6,5-6
			c7,0,12-4,12-9s5-22,12-38l11-28l7,40c4,22,4,42-1,45s-7,16-4,28c2,12,0,22-5,22c-4,0-6,10-2,22c3,13,1,19-6,15c-6-5-9,3-7,20
			c2,16,0,32-3,37c-3,6-7,24-8,40c-3,28-10,64-14,76c-1,3-2,9-1,13c1,5-6,49-15,97c-12,67-13,93-5,109
			C1953,122.8,1995,124.8,2005,100.8z M2534-507.2c0-38-27-192-42-245c-4-14-14-25-22-25c-33,0-22,191,16,283
			C2506-445.2,2535-454.2,2534-507.2z M4207-603.2c51-24,68-63,83-189c33-279-9-352-196-337c-85,8-132,26-153,59
			c-34,54-29,362,6,418C3996-576.2,4105-555.2,4207-603.2z M3741-593.2c67-21,81-45,91-162c6-63,6-144,0-206c-13-143-13-143-181-145
			c-119-1-132,1-151,19c-33,33-51,142-44,270c6,124,24,186,58,204C3569-583.2,3676-574.2,3741-593.2z M2637-604.2
			c9-12-10-272-22-305c-8-23-32-13-45,18c-11,25-11,53-1,142C2583-618.2,2608-566.2,2637-604.2z M3354-603.2c31-15,36-33,24-105
			c-10-58-4-278,8-341c7-37,14-34-127-52c-157-20-169,0-144,242c19,182,33,229,78,251C3230-590.2,3318-587.2,3354-603.2z
			 M4570-613.2c14-5,36-26,50-46c23-34,25-47,29-171c4-158-7-210-53-250c-38-33-105-57-139-49c-13,4-35,18-49,32
			c-25,25-26,32-33,180c-9,182-3,234,31,275C4446-595.2,4501-585.2,4570-613.2z M4877-598.2c38-10,48-55,34-155
			c-14-108-46-253-66-296c-16-36-62-54-105-43c-29,8-29,11-12,139c9,62,9,109,1,177c-15,123-11,136,48,162
			C4828-591.2,4843-589.2,4877-598.2z M5047-669.2c14-41-21-335-45-381c-22-42-52-65-71-53c-11,7-11,15-2,42c21,59,71,315,71,361
			c0,42,15,72,31,63C5035-640.2,5042-654.2,5047-669.2z M5173-693.2c5-19,7-95,5-169c-5-151-22-210-57-210c-18,0-21,6-21,43
			c0,23,7,85,15,137s15,125,15,161s3,69,7,73C5150-645.2,5164-659.2,5173-693.2z M5302-722.2c8-72,0-222-13-258c-5-13-14-22-20-20
			c-8,3-14,210-9,339c0,6,8,9,18,7C5291-656.2,5297-672.2,5302-722.2z M2779-681.2c7-12,7-63,1-152c-6-74-7-153-4-175
			c4-25,2-44-5-48c-19-12-50,14-61,52c-13,47-2,265,16,310C2741-658.2,2764-652.2,2779-681.2z M2520-1066.2c0-8-7-22-16-31
			c-22-22-40-5-25,24C2492-1049.2,2520-1045.2,2520-1066.2z M5386-1110.2c28-19,36-55,29-136c-8-85-23-84-24,2c-1,27-10,59-26,86
			c-14,24-22,46-18,49C5355-1100.2,5372-1100.2,5386-1110.2z M2670-1122.2c21,0,16-32-10-65c-36-45-46-107-30-175c14-57,5-76-27-66
			s-46,55-51,159c-4,91-3,100,18,122c23,24,53,35,78,29C2656-1120.2,2665-1122.2,2670-1122.2z M5274-1177.2c43-28,49-60,32-173
			c-9-56-23-113-32-127c-15-23-43-33-56-20c-2,3,1,53,9,112c7,60,11,129,7,155c-5,43-1,68,12,68
			C5249-1162.2,5261-1169.2,5274-1177.2z M3413-1221.2c21-20,22-31,25-229l3-207l-31-32c-20-22-41-33-58-33c-35,0-98,42-116,78
			c-37,73-66,329-44,392c11,29,20,37,58,47C3315-1187.2,3387-1194.2,3413-1221.2z M3822-1222.2c19-24,20-36,16-215
			c-4-170-6-194-26-231c-41-80-127-111-201-72c-79,41-80,46-87,278c-6,199-6,206,15,232c26,32,47,36,169,34
			C3795-1197.2,3803-1199.2,3822-1222.2z M5151-1219.2c21-55-20-323-55-362c-27-30-68-41-90-25c-17,12-17,19-6,103
			c12,84,9,201-6,279l-6,32h76C5138-1192.2,5141-1193.2,5151-1219.2z M4162-1223.2c9-5,26-21,37-35c19-25,21-40,21-193
			c0-187-9-218-73-280c-33-31-40-33-84-28c-39,4-54,12-84,44l-36,39l-8,166c-8,183-3,238,25,263
			C4003-1208.2,4109-1196.2,4162-1223.2z M4888-1222.2c11-11,24-37,27-57c3-21,8-50,10-65c6-35-22-255-36-290c-14-34-89-73-121-63
			c-33,11-47,24-68,66c-16,30-20,68-25,205c-4,93-3,174,2,180C4710-1201.2,4848-1185.2,4888-1222.2z M3052-1227.2c53-7,60-17,52-78
			c-4-24,1-102,11-174c18-143,15-159-30-189c-58-38-121,16-160,138c-27,83-43,216-32,259c8,31,55,60,87,55
			C2994-1219.2,3026-1223.2,3052-1227.2z M2812-1347.2c5-78,14-141,28-179c25-74,25-76-3-76c-24,0-58,26-81,63c-21,32-46,157-46,226
			c0,71,16,94,64,89l31-3L2812-1347.2z"/>
		<path class="st2" d="M3855,2248.8c-93-42-141-108-208-281c-71-183-139-343-236-552c-50-107-105-237-123-289c-31-90-32-101-33-249
			v-155l33-67c57-117,170-198,275-198c125,0,247,128,282,296c7,36,19,143,25,237c28,436,32,471,66,484c43,16,62-76,74-376
			c6-136,17-277,26-320c52-258,222-380,402-291c105,53,170,148,191,278c6,35,15,70,22,78c16,20,49,18,50-3c7-100-22-220-71-293
			c-56-84-23-104,46-28s120,240,108,345c-6,49-6,51,46,108c92,102,115,194,64,255c-37,43-75,60-137,60c-76,0-119-16-115-44
			c3-22,13-23,90-10c49,8,78,0,111-30c40-38,37-81-13-147c-22-30-59-69-83-88c-79-64-226-116-289-104c-30,6-88,64-88,89
			c0,44,88,164,121,164c28,0,23-18-22-83c-62-89-41-128,63-114c108,14,288,150,288,217c0,41-37,65-87,55c-64-12-76-34-51-101
			c13-37,0-64-33-64c-22,0-32,18-48,84c-7,27-68,171-136,321c-118,259-165,368-250,589C4137,2221.8,3993,2311.8,3855,2248.8z
			 M3745,670.8c-9-37-69-110-107-129c-38-20-128-20-165-1c-40,21-88,72-103,107c-14,34-4,55,12,27c5-10,37-38,70-63
			c89-65,126-61,228,30c34,31,65,56,67,56C3750,697.8,3749,685.8,3745,670.8z M4516,654.8c-17-69-108-130-192-129c-32,0-65,7-79,16
			c-45,29-95,89-95,113c0,30,11,29,41-3c38-42,110-84,144-84c36,0,116,47,152,91C4515,691.8,4525,690.8,4516,654.8z"/>
		<path class="st2" d="M3200,1185.8c-79-82-121-361-77-508c22-75,75-159,116-187c54-37,58-14,13,64c-57,95-76,174-75,308
			c0,83,6,138,26,224c15,63,25,116,23,118C3224,1207.8,3212,1198.8,3200,1185.8z"/>
		<path class="st2" d="M3711,411.8c-30-16-60-24-92-24c-70,0-78-21-34-87c19-28,40-75,48-104c10-42,18-54,32-54c16,0,26,19,51,92
			c17,50,43,112,58,137C3815,441.8,3792,456.8,3711,411.8z"/>
		<path class="st2" d="M4090,426.8c0-7,15-44,34-83s44-104,55-143c28-95,48-95,72,0c6,26,24,65,40,87s30,50,32,62c2,19-6,23-62,35
			c-36,7-80,22-98,33C4125,439.8,4090,443.8,4090,426.8z"/>
	</g>
</g>
</svg>
