<?xml version="1.0" encoding="utf-8"?>
<!-- Generator: Adobe Illustrator 22.0.0, SVG Export Plug-In . SVG Version: 6.00 Build 0)  -->
<svg version="1.1" id="Layer_1" xmlns="http://www.w3.org/2000/svg" xmlns:xlink="http://www.w3.org/1999/xlink" x="0px" y="0px"
	 viewBox="0 0 1013.2 1057" style="enable-background:new 0 0 1013.2 1057;" xml:space="preserve">
<style type="text/css">
	.st0{display:none;}
	.st1{display:inline;fill:#D6D6D6;stroke:#FFFFFF;stroke-miterlimit:10;}
	.st2{fill:#FFFFFF;}
</style>
<g id="Layer_2_1_" class="st0">
	<rect y="0.3" class="st1" width="1013.2" height="1056.7"/>
</g>
<g>
	<g>
		<path class="st2" d="M668,420c3.2,3.5,7.8,5.6,11,9c2.7,2.9,3.7,6.7,6,10c5.9,8.4,12.5,17,17,27c2.3-0.3,2.5-0.4,4-1
			c-0.2-11.8-7-17-12-24c-10-14.1-18.7-23.3-32-34c-0.8-0.7-2.3-4.4-3-5c-1,0-2,0-3,0c-61.7-49.8-145.9-66.7-239-72c0-0.3,0-0.7,0-1
			c7.2-2.5,22.5-0.8,30,1c8,0,16,0,24,0c8.2,2,19.3,2.1,27,4c4.7,0,9.3,0,14,0c16,3.3,32,6.7,48,10c14.1,4.8,26.8,8.9,39,14
			c5.1,2.1,10.2,1.6,15,4c32.1,16.2,59.8,36.9,83,62c0.7,0,1.3,0,2,0c-1-7.3-5.6-8.5-9-13c-10.3-13.9-27.2-29.9-42-39
			c0-0.7,0-1.3,0-2c8.9,0.8,13.3,7,19,11c5.1,3.6,10,6.3,15,10c8,5.9,13.2,15.7,21,22c1,0.3,0.4,0.8,1,0c0.7,0,1.3,0,2,0
			c-2.8-9.5-15.5-19.5-22-26c-21.9-21.9-46.4-39.6-77-53c-4.3-1.9-8.3-4.8-14-6c-0.6-1.8-0.1-0.9-1-2c0-0.3,0-0.7,0-1
			c6.2,2.4,13.8,3.1,20,6c0.3,0.7,0.7,1.3,1,2c2.3,0.7,4.7,1.3,7,2c4.9,2.5,10.4,6.6,15,9c1,0,2,0,3,0c4.5,2.2,9.9,6.3,14,9
			c2.7,1.8,5.4,1.3,8,3c7.9,5,15.4,11.4,23,17c2,2.3,4,4.7,6,7c8.5,6.3,22.6,19.2,26,30c2.4-0.7,2.2-1,4-2
			c-0.3-17.9-21.2-38.1-30-50c-2.7-2.3-5.3-4.7-8-7c-0.3-1.3-0.7-2.7-1-4c-4.1-5.9-14.1-12.6-20-17c-3.5-2.6-6.5-7.2-10-10
			c-1.3-0.3-2.7-0.7-4-1c-14-9.1-33.5-18.5-49-23c-31.7-9.2-82.8-9.6-123-9c4.6-3.4,21.5-3.2,30-3c-1.5-1.1-4.1-1.1-7-1
			c3.5-2.5,18,0.8,25,0c10.2-1.1,25.9-1,42-1c53.7,0,91.2,23.8,120,54c7.7,8.1,16.9,15.4,23,25c2,0,4,0,6,0c2-16,4-32,6-48
			c0.2-4.7,3.1-14.8,0-19c-1.3-6.5-7.6-9.5-11-14c-7.3-9.9-17.4-18.5-27-26c-1,0-2,0-3,0c0-0.7,0-1.3,0-2c-1.3-0.3-2.7-0.7-4-1
			c0-0.7,0-1.3,0-2c-2.3-0.3-4.7-0.7-7-1c-4.3-1.9-19.5-9.3-21-11c-0.3,0-0.7,0-1,0c0-0.3,0-0.7,0-1c3.4,1.1,7.8,0.8,13,3
			c20.9,8.7,49.5,22.1,61,40c4.6-2.2,3.2-13.3,3-20c-0.5-16.5-3.6-33.9-9-46c1-4.6-8.5-22.1-13-28c-0.7-2.3-1.3-4.7-2-7
			c-0.7,0-1.3,0-2,0c-7-6.1-13.8-13.1-23-17c-7.4-3.1-18.9-6.6-24-8c-2.4-0.7-5.5,1.9-9,0c0-0.7,0-1.3,0-2c-2.1,1.5-31.3-2.1-33-2
			c-2.8,0.2-6.9-1.5-9-2c-3.7,0-7.3,0-11,0c-9.9-2.8-26.3-0.3-33-5c-0.3,0-0.7,0-1,0c0-0.3,0-0.7,0-1c9,1,20.6,1.9,29,4
			c9.4,2.3,21.2-0.2,30,2c5,0,10,0,15,0c5.3,1.3,14.7,2.5,20,3c1.2,0.1,2.6-1.6,5-1c9,2.2,15.9,6.1,27,6c0.1-13.9-12.2-21.5-19-29
			c-0.3-1.3-0.7-2.7-1-4c-1.6-2.2-5.2-3-7-5c-0.3-1.3-0.7-2.7-1-4c-1.2-1.5-4.5-4.8-6-6c-0.7,0-1.3,0-2,0c-14-14.2-27.7-24-45-35
			c-2-1.3-3.8-4.8-6-6c-14.8-8.2-29-14.7-45-22c-2.3-1.1-4.8-4-7-5c-8.8-4-18.1-6.4-26-11c-2,0.6-23.1-5.1-29-7
			c-19.1-6.1-63-12.7-84-9c-18,3.2-38.3-2-54,3c-8.7,0.3-17.3,0.7-26,1c-16.1,4.4-34.8,2.7-50,8c-28.4,9.9-55.5,17.4-80,31
			c-12.9,7.2-23.9,18.9-37,26c0,1.7,0,3.3,0,5c5.7-1.3,11.3-2.7,17-4c6,0,12,0,18,0c11.9-2.9,46.7-1.8,58,1c8.7,2.2,17.8,5.7,26,8
			c10.9,3,17.8-0.8,29,2c7.9,2,17.4,4,27,4c-4.9,3.5-27.5-0.2-33-1c-15.3-0.3-30.7-0.7-46-1c-9.5-2.8-25.4-2-38-2c-4.7,0-9.3,0-14,0
			c-10.4,3.4-23.9,2.5-35,6c-9.3,2.9-20.6,6.4-29,10c-2.7,1.2-4.7,0.5-7,2c-5.1,3.4-7.5,9.8-11,15c-5.2,7.7-12,16-16,25
			c-3.9,8.9-4.8,20.9-8,30c1.3,6.8-1.4,21.7-4,29c-5.1,14.3-11.4,29.3-18,45c-1.4,3.3-3.5,17-2,19c0,0.7,0,1.3,0,2
			c8-0.7,22.4-16.4,29-21c3.5-2.4,7.8-3.2,11-6c2.8-2.5,5.7-6,9-8c1.6-1,3.7,0.2,4,0c0.3-1,0.7-2,1-3c3.6-2.6,8.4-2.4,12-5
			c0-0.7,0-1.3,0-2c1.3,0,2.7,0,4,0c10.2-4.5,21.2-11.9,32-16c8.5-3.2,16-2.9,25-6c34-11.8,75.5-18,121-18c17.2,0,38.3-1.5,53,2
			c3.7,0,7.3,0,11,0c15.2,4,32.7,3.5,48,8c9.5,2.8,20.6,6.5,30,9c0.9,0.2,6.8-0.1,7,0c12,4,23.4,9.7,35,14c0,0.3,0,0.7,0,1
			c-7.1-0.9-13.2-4.1-19-6c-10.8-3.6-26.3-7.3-39-11c-14.5-4.2-37.1-4.8-47-7c-13-0.3-26-0.7-39-1c-15.6-4-50.9-1-66,1
			c-2.6,0.3-4.8-2.1-8-1c-0.3,0.7-0.7,1.3-1,2c-2.1,0.7-5.7-0.1-6,0c-10,1.9-17.8,0.3-27,3c-18.5,5.4-36.9,8.4-53,14
			c-3.8,1.3-15,2.5-16,3c-13.4,7.1-34.4,16-49,25c-11,6.8-21.7,11.6-32,19c-4.9,3.5-9.2,9.4-14,13c-1,0-2,0-3,0
			c-3.5,2.2-20.8,20.3-22,24c-5.8,8.3,4.3,25.4-1,33c0.6,2.8-0.6,1.8,2,2c0,2.9,0.1,5.5-1,7c0,0,0.1,3.9,1,2c0-0.3,0-0.7,0-1
			c0.3,0,0.7,0,1,0c0.1,5.4,3.2,32.4,5,35c0.1,4.2,0.7,4.6,2,7c12.1-0.4,19.1-13.7,26-20c3.8-3.5,8.9-4.8,13-8c0.3-1,0.7-2,1-3l6-4
			c1.3,0,2.7,0,4,0c5.9-3.8,12.3-8.5,19-12c18.5-9.6,42.9-13.8,64-20c7.3-1,14.7-2,22-3c8.4-2.2,15.6-1.6,25-4c3.3,0,6.7,0,10,0
			c9.3-4.2,36.3-4.4,53-4c-5.3,3.9-14.8-0.2-22,2c-14.9,4.6-36.1,5.1-51,9c-2.7,0-5.3,0-8,0c-12.2,3.6-25.9,5.2-39,9
			c-18.3,5.4-47.7,13-68,25c-1.5,0.9-3.9,5.1-5,6c-1,0-2,0-3,0c-0.7,1-1.3,2-2,3c-2.1,1.5-3.9,1.5-6,3c-4.2,3-7.7,8.1-12,11
			c-1.3,0.3-2.7,0.7-4,1c0,0.7,0,1.3,0,2c-1,0.3-2,0.7-3,1c-1.8,1.4-2.4,4.4-4,6c-1,0.3-2,0.7-3,1c-0.7,2.3-1.3,4.7-2,7
			c-5.3,8.7-12.3,21.9-9,36c2.7,11.6-1.4,22.5,2,33c2.2,7,6.6,12.5,10,18c0.7,0,1.3,0,2,0c3.2-9.3-1.6-17.9,1-28
			c2.9-11.5,11-36.9,20-41c0-1.7,0-3.3,0-5c-9.5,0.3-21,15.9-22,25c-0.3,0-0.7,0-1,0c1.5-13,13-24.8,21-32c0.7,0,1.3,0,2,0
			c24.9-25.6,59.8-33.3,97-45c6.7-2.1,11.7-1,19-3c7.7-2.1,18.4-3.9,27-6c7-1.7,9.9,1.5,16,0c1.3-0.3,6.7-0.2,9-1
			c0.3-0.7,0.7-1.3,1-2c7.1-0.4,17.2,2.2,26,0c15.6-3.8,36.5-3,56-3c14.2,0,29.3-0.7,41,2c5,0,10,0,15,0c14.6,3.5,33.2,1.7,47,5
			c6,0.3,12,0.7,18,1c16.2,4,32.1,3.7,47,8c5,0.7,10,1.3,15,2c23,6.7,45.1,11.2,65,20c14.8,6.5,30.8,19.2,43,29c2.1,1.7,3,5.3,5,7
			c4.7,3.9,10.2,7.2,14,12c3.8,4.8,7.4,10.1,12,14c1.1,0.9,0.9,0.7,3,1c-0.9-5.9-10.6-18.5-15-21c0-0.7,0-1.3,0-2
			C666.7,420,667.4,420,668,420z M544,139c4.5,0,5.5,0.6,8,2c0,0.3,0,0.7,0,1c-6.9-0.9-24.6-4.4-29-8
			C526.8,134.3,541.6,137.3,544,139z M730,531c4.4-4,10.6-7.2,14-12c7.1-9.8,12.9-21.3,17-34c0.3-4,0.7-8,1-12c1.4-5,1.8-14.3,0-20
			c-2.8-9-8.3-16.9-11-25c-2.3-6.8,0-14.1-3-20c-2.9-5.8-12-14.1-12-19c-2.9-2.4-5.6-1.9-7-6c-1.7-0.3-3.3-0.7-5-1
			c-1.1,0.9-0.1,0.4-2,1c0.3,6.2,2.8,6.9,4,11c0,4,0,8,0,12c2.9,11.2-1.1,27.1-4,36c-0.3,3.3-0.7,6.7-1,10
			c-5.2,12.2-15.7,24.2-19,35c8.9-1.5,21-20.4,25-28c0-2,0-4,0-6c0.6-1.7,2.8-6.5,4-8c0-0.7,0-1.3,0-2c0.7,0,1.3,0,2,0
			c0.7,15.4-8,38.1-17,47c0,1,0,2,0,3c6.1-1.9,17.4-16.2,20-22c2.4-5.4,2.2-10.3,6-14c0-0.3,0-0.7,0-1c0.3,0,0.7,0,1,0
			c-0.2,11.9-2.1,21.4-6,30c-2.2,4.9-6.5,6.8-7,14c5.9-1,13.4-12.2,16-17c1.8,0.6,0.9,0.1,2,1c-1.2,1.4,0.6,2.5-1,6
			c-0.7,0.3-1.3,0.7-2,1c-4.1,8.3-5.7,17-11,24c-1,0.3-2,0.7-3,1c0,1,0,2,0,3c-0.7,0.8-3.4,1.2-4,2c0,1,0,2,0,3c-1,0.3-2,0.7-3,1
			c-2.2,2.3-3.4,6.2-6,8c-1.3,0.3-2.7,0.7-4,1c-1.3,1-10.4,13.1-11,15c-1,1.3-1,2.5-1,5C714.8,553.9,722.7,537.7,730,531z M793,485
			c9.4,7.4,20.5,17.9,27,28c2.2,3.4,4.4,8.6,6,12c0,1,0,2,0,3c0.7,0,1.3,0,2,0c-0.3,0.7-0.7,1.3-1,2c0.4,1.1,2.5,1.3,3,2
			c-0.3,1-0.7,2-1,3c0.7-0.3,1.3-0.7,2-1c0.9,1.1-0.9,1-1,1c0,0.3,0,0.7,0,1c0.7,0,1.3,0,2,0c0.3,0.4-0.1,4.7,0,5c0.7,0,1.3,0,2,0
			c0,1.7,0,3.3,0,5c8,14,8.5,34.2,14,46c-0.3,1.3-0.7,2.7-1,4c0.3,1,3,5,3,5c0,2.7,0,5.3,0,8c0.5,1.7,2.5,5.4,3,7c0.3,3,0.7,6,1,9
			c1.5,3.8,4.5,6.8,5,12c1.3,0,2.7,0,4,0c-0.1-13.9-4.2-22.9-7-34c-0.3-4-0.7-8-1-12c-4.4-15.8-7.2-33.9-13-48c-1.7-4.2-1-8-1-8
			c-0.7,0-1.3,0-2,0c0-0.1,0.1-5.1-1-7c-1-0.3-2-0.7-3-1c0-1.3,0-2.7,0-4c-0.7,0-1.3,0-2,0c-1.9-3-1.9-8.3-4-11c-0.7,0-1.3,0-2,0
			c-1-1.2-2-4.9-3-6c-1-0.3-2-0.7-3-1c0-1,0-2,0-3c-2.5-3.3-7-6-10-9c-8.7-8.7-25.1-25.5-41-26C770.3,479.3,785.8,479.3,793,485z
			 M887,789c-0.3,0-0.7,0-1,0c0-0.3,0-0.7,0-1c4.8,1.5,8.7,5.2,13,7c6.4,2.7,14.1,2,19,6c3.3,0,6.7,0,10,0c0-0.7,0-1.3,0-2
			c-19.2-10.7-36.3-19.3-51-34c-2.3-2-4.7-4-7-6c0-1,0-2,0-3c-0.8-0.9-3.3-0.9-4-2c0-1,0-2,0-3c-1-0.3-2-0.7-3-1
			c-0.3-1.7-0.7-3.3-1-5c-0.7,0-1.3,0-2,0c0-1,0-2,0-3c-0.7,0-1.3,0-2,0c0-1,0-2,0-3c-2.7-3.8-7.1-8.8-9-13
			c-5.2-11.3-7.4-21.2-11-32c-1.7-5-0.2-12.9-3-17c0-1.3,0-2.7,0-4c0.3,0,0.7,0,1,0c6.6,17.1,10,35.3,19,50c2,3.3,5.9,5.6,8,9
			c1,0,2,0,3,0c-0.3-11.8-5.5-19.2-10-31c-4.6-12.2-6.3-25.7-10-38c-1-3.2,0.4-7.9,0-9c-0.7,0-1.3,0-2,0c-1.1-2.1,0.9-4,1-5
			c-0.7,0-1.3,0-2,0c-1.5-3,2-6.8,0-11c-3.6-7.7-7.5-36.4-7-48c-2.6-4.5-5.8-18.6-7-24c0.3-1.3,0.7-2.7,1-4c-0.7,0-1.3,0-2,0
			c-1.8-3,1-4.9,0-7c-0.7,0-1.3,0-2,0c-1.8-3.1-1.1-6.8-1-9c-7.2-9.3-10.1-22.4-17-32c-1-0.3-2-0.7-3-1c-0.7-0.8-1.3-5.2-2-6
			c-0.1-0.1-5.6-3.5-6-4c-7.3-8.1-16.3-19.6-29-19c-0.8,7.9-6.7,12.3-5,20c-0.5,0.8-3.2,2.4-4,3c1.6,8.7,9.9,12.6,14,19
			c7.7,12.1,17.9,44.1,16,62c-5.5-6.3-4.6-19.5-7-26c-2.6-6.9-5.2-14.7-9-21c-1.6-2.7-5.2-5-7-8c-1.7,0-3.3,0-5,0
			c0.2,8.6,4.2,11.3,7,17c1.5,3,0.6,6.6,1,8c0.1,0.4,2.7,3.2,3,4c0,2.3,0,4.7,0,7c0.7,0,1.3,0,2,0c-0.3,1-0.7,2-1,3
			c0.6,4.8,2.7,13,4,18c0.3,5.3,0.7,10.7,1,16c1.5,5.8,1.5,15,3,21c0,4,0,8,0,12c2.8,10.9,5,25,5,37c-5.3-6.1-5.5-25.1-8-35
			c-7.7-30.1-6-63.7-19-88c-1.7,0-3.3,0-5,0c1.7,21.4,10.3,40.6,10,65c-4.7-19.7-9.3-39.3-14-59c-2.7-6.2-11.1-14.9-11-20
			c-3.1-0.4-4.7-1.6-7,0c-1,0.3-2,0.7-3,1c-1.6,11.9,11.4,29.3,16,43c8.1,24.2,8.3,57,16,86c3.4,12.6,2.8,28.8,8,36c0,0.7,0,1.3,0,2
			c1.7,0,3.3,0,5,0c0.1-6.6,0-15.9-3-20c0-3,0-6,0-9c0.3,0,0.7,0,1,0c4.7,21.7,13.8,42.1,22,60c2,4.4,1.8,7.7,4,12
			c2.3,4.3,6.8,9.7,9,14c0,1.3,0,2.7,0,4c0.7,0,1.3,0,2,0c0.3,1.7,0.7,3.3,1,5c5,7.2,12.4,13.3,17,21c1.3,0,2.7,0,4,0
			c-1.6-6.5-6.4-10.5-10-15c-1-3-2-6-3-9c-1.8-3.3-5.2-7.5-7-11c0.3-1-9.6-30.9-12-34c0-0.7,0-1.3,0-2c0.3,0,0.7,0,1,0
			c1.5,4.9,4.9,8.6,7,13c1.3,0,2.7,0,4,0c-0.2-9-2.9-12.7-5-19c-4.6-13.8-7.4-31.7-7-51c4.6,5.5,4.3,20.2,7,28
			c5.3,15.7,7.8,27.5,14,42c0.3,2,0.7,4,1,6c9.3,18.3,19.5,38.9,28,50c6.2,8,10.9,18,19,24c6.4,4.7,16.5,10.7,24,11c0,0.7,0,1.3,0,2
			c0,0,6.4-0.3,8,1c2.1-0.4,1.9-0.1,3-1c0.9-1.1,0.4-0.1,1-2c-5.9-4.6-13.6-9.2-20-13c0-0.7,0-1.3,0-2c19.1,9,46,10.9,75,10
			c0.4-2.1,0.1-1.9,1-3c0-0.3,0-0.7,0-1C934.4,818,897.1,806,887,789z M102,641c6.7,0.1,15.9,0.8,21-1c-0.5-10.4-3.9-6.4-7-11
			c-0.3-1.7-0.7-3.3-1-5c-3.3-5.3-7.3-10.7-9-18c-3,0-6,0-9,0c-0.7,2.5-2.4,3.2-3,5c-1.9,5.5,1.9,13.9-1,18
			C93.1,638.2,97.3,637.1,102,641z M127,647c-8,0-16,0-24,0c-1.8,1.5-5,3-7,4c-1.9,9.8,0.1,20.3,2,28c9.8,2.2,21.2,2.4,31,0
			c0.6-2.8,3-20.9,1-24C129.6,650.2,128.2,650.7,127,647z M859,670c3.1,24.3,17,42.9,29,59c4.7,4,9.3,8,14,12c0.3,0,0.7,0,1,0
			c-1.7-9.4-12.1-15.1-17-22c-7.7-11-21-34.6-24-49C861,670,860,670,859,670z M130,694c-2.5-8-11.2-4.6-19-7c-2.9,2-8.5,0.7-11,3
			c-2.4,1-2.1,1.7-4,3c0.5,4.9-0.6,21,0,22c1.6,3,6.9,4.2,9,7c6,0,12,0,18,0c2.1-0.8,4.1-3.2,7-4c0-1.7,0-3.3,0-5c0.7,0,1.3,0,2,0
			C132.8,711.1,130,694,130,694z M103,762c5.9,4.3,22-0.1,26-2c1.8-8.6,5.8-20.4,0-27c-0.9-2.5-1.1-1.5-2-4c-6.8-0.8-15.8-1.1-24-1
			c-1.6,1.7-3.8,3-6,4c-1.1,6.3,1.3,21.2,0,27C100.2,759.9,100.3,761,103,762z M125,884c-0.7,0-1.3,0-2,0c-0.6-0.8-1.8-3.6-2-4
			c-1-2.5-1.9-8-2-10c0.4-0.7,1.5-1,1-3l-2-3c-1.4-5,1.3-9.7,2-12c0-3.7,0-7.3,0-11c1.3-5.7,2.7-11.3,4-17c0.7,0,1.3,0,2,0
			c-0.2,26.9-4.3,66.2,17,73c1.1,0.9,0.1,0.4,2,1c0-0.3,0-0.7,0-1c0.8-2.1-9.6-18.2-9-30c0.4-7.2-0.4-19.3,2-28
			c1.6-5.8,5.1-16.7,3-25c-2.3-9-2.1-20.1-6-28c-2.7-5.4-6.4-10.4-8-15c-1.3,0-2.7,0-4,0c0.1,6.7,4.8,23.2,8,27c0,2,0,4,0,6
			c-0.7-0.3-1.3-0.7-2-1c-0.7-2.6-1.9-10.8-5-14c-1.1-0.9-0.9-0.7-3-1c-0.1,4.2-1.4,5.9-2,8c-1.3,4.7,1.8,8.8,0,14
			c-1.3,3.7-3.6,4.4-4,10c-5.5-7.7,4.4-28.1,0-35c0-0.7,0-1.3,0-2c-9.4,1.5-4.7,7.6-9,13c0,0.7,0,1.3,0,2c-0.7,0-1.3,0-2,0
			c0.5-2.6,1-4.4,1-8c-6.4,0.3-5.8,2.9-9,6c0,0.3,0,0.7,0,1c-0.3,0-0.7,0-1,0c3.4-7.5,6.9-16,12-22c-0.3-2.3-0.4-2.5-1-4
			c-8.1,0.9-7.8,5.3-11,9c1,0.6-3.8,7.5-5,9c1.7,1.2,0,0.6-1,2c0,0-4.1,12.7-6,18c-3.9,10.9-13.3,32.7-10,46c0.7,2.8-0.8,6.8-1,8
			c-0.6,3.5,1.1,1.7,2,3c0,0-1.9,4.7,1,8c0,0.7,0,1.3,0,2c2.5-0.1,3.7,0,5-1c2.3-3.3-0.6-10.3,0-13c0.7-0.3,1.3-0.7,2-1
			c0.7-2.3-1.2-4.1-1-5c0.7-0.3,1.3-0.7,2-1c-0.3-1-0.7-2-1-3c0.7,0,1.3,0,2,0c-0.3-1-0.7-2-1-3c0.7,0,1.3,0,2,0
			c1.3-2.5-1.4-1.1,0-3c1-2.6,2.6-3.7,4-6c0.7,0,1.3,0,2,0c-0.9,2.4-1.8,5.2-2,6c-1.6,6.8-1.5,16.8,0,23c3,12.2,0.5,18.6,5,29
			c0.7,1.7,3.1,3.6,4,5c0.7,2,1.3,4,2,6c0.7,0,1.3,0,2,0c0.3,1.7,0.7,3.3,1,5c2.8,5,7.3,12.1,9,18c1.8,0.6,0.9,0.1,2,1
			c4.2-0.1,4.6-0.7,7-2c-0.5-10.2-6.7-17.6-10-25c-1.3-2.9,0.4-6.9,0-8c-0.2-0.6-2.7-2.2-3-3c-1.2-3.2-0.9-7.5-1-8
			c-0.5-5-5.1-12.6-1-18c0-0.7,0-1.3,0-2c2.4,2.8,0.5,4.8,1,6c0.3,0.6,2.7,3,3,4c2,6.1-0.2,10.7,3,17c6.8,13.4,15.4,27.1,16,47
			c5.9,2.6,10.6,4,14,9c1.3,0,2.7,0,4,0c4.5-25.5-18-46.3-23-63C124.4,886,124.7,885,125,884z"/>
	</g>
</g>
</svg>
