<?xml version="1.0" encoding="utf-8"?>
<!-- Generator: Adobe Illustrator 22.0.0, SVG Export Plug-In . SVG Version: 6.00 Build 0)  -->
<svg version="1.1" id="Layer_1" xmlns="http://www.w3.org/2000/svg" xmlns:xlink="http://www.w3.org/1999/xlink" x="0px" y="0px"
	 viewBox="0 0 1013.2 1057" style="enable-background:new 0 0 1013.2 1057;" xml:space="preserve">
<g transform="translate(0.000000,704.000000) scale(0.100000,-0.100000)">
	<path d="M3167,3521.8c-5-5-34-9-65-10c-180-3-718-61-892-95c-447-88-750-184-1014-322c-201-105-266-236-266-541
		c0-284,37-584,107-876c41-170,54-324,31-379l-14-34l-86-2c-50-1-93-7-101-14c-8-6-47-21-87-32c-235-65-443-256-582-534
		c-240-478-221-1073,45-1470c22-33,75-95,119-137c65-64,97-87,191-133c61-31,131-59,155-62c41-6,44-4,92,48c57,62,59,74,36,219
		c-18,115-28,136-73,155c-47,20-113,83-163,156c-194,283-168,842,54,1153c53,74,150,163,187,171c52,12,91-32,118-132
		c25-92,68-171,108-196c50-32,228-219,259-273c14-23,34-68,45-99c18-52,19-82,19-463c-1-224-5-456-11-517c-5-60-12-150-15-200
		c-7-94,9-337,28-440c11-60,43-145,57-155c4-3,23-27,41-55c19-27,109-126,200-220c91-93,198-207,237-252c167-191,380-476,566-759
		c89-136,149-200,243-260c301-192,855-290,1444-255c509,30,901,160,1096,363c29,29,112,143,185,253s179,261,235,335
		c186,247,502,600,582,651c88,56,191,189,249,323c25,58,27,70,29,261c3,221-13,429-37,493c-6,15-10,70-9,122s1,104,0,115
		c-2,11-3,119-3,240c-1,182,3,240,20,336c20,110,24,120,78,199c31,46,60,93,65,104c4,12,37,55,72,96c144,169,222,285,237,355
		c26,119,11,176-104,392c-47,89-75,188-75,266c0,23,12,96,26,162c92,435,111,558,95,619c-9,34-7,47,9,78c13,26,19,60,21,122l2,85
		l-39,48c-65,80-234,251-325,328c-101,87-284,208-389,258c-387,185-1156,335-2020,393C3913,3521.8,3180,3534.8,3167,3521.8z
		 M3545,3388.8c39-10,84-24,100-31c61-24,242-62,300-63c62-1,163,20,274,55c55,18,79,20,165,14c305-20,871-98,1066-147
		c41-10,158-39,258-64c202-51,304-85,310-105c3-9-3-11-24-8c-16,3-72,13-124,23c-74,14-125,16-230,11c-222-9-275-24-961-261
		c-153-54-234-68-311-55c-103,16-171,62-206,138c-33,73-29,177,11,245c30,50,34,77,13,77c-39,0-107-87-141-182c-27-75-49-91-118-84
		c-26,3-51,7-56,10c-4,3-21,40-36,82c-21,57-41,90-75,126c-42,43-80,62-80,39c0-5,15-40,33-77c44-94,45-177,4-247
		c-57-96-146-134-296-124c-95,5-117,12-475,141c-374,134-550,176-743,176c-356,0-628-129-766-361c-52-89-98-213-105-283
		c-4-52-3-58,13-55c11,3,29,31,50,79c43,102,105,198,165,254c79,74,93,60,31-32c-80-118-139-263-167-409c-23-123-15-394,15-507
		c43-162,131-303,243-388c116-88,237-115,482-105c247,10,384,43,603,147c295,140,507,370,603,656c42,123,59,215,67,354l6,120l38,12
		c31,9,42,8,55-3c14-12,16-30,11-129c-6-136-43-314-94-445c-19-49-41-109-48-133c-14-40-13-42,5-32c28,15,56,59,110,172
		c73,155,130,387,130,532c0,67,1,69,40,109c37,36,43,39,56,25c14-13,14-29,4-114c-6-55-13-116-16-136c-9-55,17-50,49,11
		c30,54,67,243,67,338c0,84,8,93,89,93c43,0,72-5,79-12c5-7,17-82,26-166c17-161,57-297,87-297c16,0,17,34,4,193c-5,60-4,102,1,102
		c17,0,73-39,82-57c5-10,12-60,16-112c7-106,46-291,83-396c26-73,101-223,132-264s43-16,20,42c-79,197-123,382-136,569
		c-6,97-6,97,20,109c17,8,34,8,54,2c27-9,28-12,35-104c18-216,50-353,118-496c106-224,291-410,529-532c199-102,388-150,631-158
		c208-8,307,7,411,59c294,147,429,630,299,1068c-26,85-79,196-137,281c-25,38-43,72-40,76c10,10,85-47,120-90c18-22,61-99,97-170
		c36-72,71-132,78-135c33-11-8,171-67,293c-27,56-63,109-125,178c-48,53-82,97-77,97c17,0,183-116,239-167c51-46,54-51,62-113
		c9-70,13-82,71-240c92-250,102-405,45-693c-57-284-51-337,73-608c44-96,85-196,92-222c17-70,8-148-25-197c-34-52-68-72-175-105
		c-128-40-208-93-225-152c-12-38,14-36,76,6c58,39,113,58,140,48c8-3-8-24-43-58c-31-30-77-81-102-114c-69-92-108-130-156-155
		c-40-20-55-22-140-17c-68,3-119,12-176,32c-230,78-501,88-630,22c-80-40-137-97-151-151c-10-42,21-33,82,23c52,48,140,91,185,91
		c17,0,18-3,9-20c-6-11-31-39-56-62c-54-50-109-157-129-253c-9-43-15-127-15-220c0-156-5-175-42-175c-23,0-45,35-54,86
		c-14,91-37,84-44-14c-4-49-9-68-20-69c-31-6-41,14-46,88c-3,41-7,85-10,98c-9,44-25,7-31-72c-7-94-13-104-50-91c-27,9-28,12-34,104
		c-4,52-14,142-22,200c-9,58-19,180-23,273c-6,156-14,199-28,162c-14-38-18-287-6-471c14-233,11-250-46-241c-21,4-57-2-95-15
		c-33-11-63-18-66-14c-3,3-9,61-13,129c-7,118-21,174-39,162c-5-3-12-61-16-130c-9-150-16-164-72-147c-57,17-101,15-152-9
		c-25-11-47-16-51-12s-12,58-18,118c-11,111-36,215-51,215c-11,0-21-102-21-215c0-109-6-115-77-83c-70,32-145,30-212-5
		c-29-15-58-27-65-27c-10,0-14,56-19,233c-3,127-10,245-16,260c-26,67-37,2-50-290c-4-106-11-167-19-175c-9-9-23-8-61,6
		c-67,24-154,22-221-4c-84-33-85-30-71,192c6,100,14,201,18,222c8,49-8,42-38-17c-14-27-30-98-46-211c-13-94-29-175-33-180
		c-6-6-25-4-50,4c-35,11-47,11-99-5c-32-9-64-14-70-11c-15,9-14,46,3,136c20,107,32,335,17,344c-17,11-37-48-45-129
		c-4-38-14-99-22-135s-19-99-25-140c-14-113-6-105-109-105c-105,0-99-11-71,126c25,124,37,279,22,279c-22,0-35-46-103-365
		c-12-54-16-60-41-63c-38-5-44,18-24,97c24,99,29,140,22,172c-9,42-22,36-30-13c-10-60-54-196-65-203c-18-11-50,6-56,30
		c-3,13,1,48,10,78c19,65,20,77,5,77c-5,0-15-14-21-31c-8-24-15-30-36-27c-39,5-48,29-33,89c13,48,12,53-4,65c-10,7-22,15-27,16
		c-5,2-16,35-24,73c-18,86-58,172-113,245c-22,30-41,59-41,64c0,29,183-44,217-88c10-12,30-30,46-40c27-18,27-18,27,3
		c0,73-107,163-235,197c-67,18-240,17-350-2c-49-8-138-31-197-50c-89-28-123-34-196-34c-80,0-92,3-133,29c-50,33-110,93-161,166
		c-20,28-57,69-82,93c-52,49-57,62-21,62c30,0,70-19,139-67c88-60,80,7-10,86c-38,33-69,48-159,76c-134,42-176,76-201,164
		c-15,51-15,59,4,136c11,44,52,148,91,231c38,83,77,177,86,209c20,80,19,204-4,316c-11,52-28,158-37,236c-25,198-15,275,72,531
		l66,194l-4,193c-3,180-2,194,16,214c11,12,29,21,40,19c19-3,22-12,26-83c7-106,19-108,109-22c101,98,221,154,441,207
		c46,11,89,25,94,30c16,16-11,29-59,31c-22,0-51,4-64,8c-19,5-21,8-10,18c8,6,34,16,59,23c25,6,79,22,120,35c71,22,130,32,395,69
		c61,9,229,25,375,36C3306,3412.8,3446,3414.8,3545,3388.8z M4700,1887.8c0-16,183-194,252-245c95-70,249-151,271-142
		c35,13,26,22-137,133c-41,29-111,102-104,109c3,3,34-16,69-43c109-83,202-144,244-159c22-7,49-20,61-28c12-7,61-25,110-39
		c111-33,252-43,362-27c130,19,205,59,320,169c34,33,62,56,62,51c0-12-21-48-42-73c-10-11-18-22-18-25c0-4-25-26-55-50
		c-64-51-73-80-22-73c58,9,129,67,209,172c52,67,56,56,12-31c-52-105-176-198-304-230c-146-36-488-5-692,63c-122,40-289,124-344,173
		c-7,5-25,19-40,30c-47,32-150,141-192,202c-55,82-55,84-38,77C4693,1898.8,4700,1891.8,4700,1887.8z M3194,1875.8
		c-91-155-247-293-439-387c-327-161-797-197-998-77c-66,39-101,75-152,154c-54,85-59,131-5,56c60-85,113-136,165-160
		c100-47,101-18,4,79c-67,66-113,137-89,137c5,0,10-4,10-9c0-12,108-115,152-145c20-13,70-37,110-52c66-24,86-27,218-28
		c132,0,154,2,240,28c52,16,106,34,120,41s54,28,90,46c81,40,108,58,211,138c57,45,77,57,69,40c-8-13-25-35-40-49
		c-37-34-170-135-197-149c-28-14-30-41-3-41c52,0,244,111,340,196c58,53,145,143,167,174C3182,1889.8,3206,1895.8,3194,1875.8z
		 M2015,1557.8c43-12,103-20,155-21c47-1,96-4,110-8c34-10-138-25-182-16c-62,13-168,47-174,56C1916,1582.8,1938,1579.8,2015,1557.8
		z M5960,1568.8c0-10-127-47-193-57c-55-7-183,4-171,16c5,4,63,10,129,13c74,3,135,11,160,20C5930,1578.8,5960,1581.8,5960,1568.8z
		 M935,1088.8c0-8-30-22-75-35c-130-38-214-89-321-195c-59-59-112-123-138-168c-53-90-108-228-121-307c-6-34-18-89-26-123
		c-16-69-18-123-5-123c12,0,21,26,21,61c0,17,8,51,19,77c10,26,28,81,41,122c73,244,226,453,398,543c86,45,187,63,181,32
		c-3-12-26-25-72-40c-37-13-89-37-116-54c-55-36-153-135-198-201c-86-127-158-318-188-499c-23-139-17-390,13-503
		c60-225,169-390,305-463c61-34,67-40,67-82c0-24,7-37,25-49c14-9,25-25,25-37c0-52-195,24-295,115c-144,131-247,349-285,598
		c-14,95-14,355,0,444c26,166,61,276,128,411c67,136,124,215,216,302c105,98,168,136,281,167C912,1108.8,935,1109.8,935,1088.8z
		 M2005,100.8c3-10,9-47,11-83c3-36,8-72,11-80s7-38,8-67c2-29,8-61,14-71c6-11,8-22,4-25c-3-4-1-13,6-20c6-8,8-23,4-32
		c-4-11-2-16,4-12s9-6,8-23s2-27,8-23s8,0,4-10c-3-9-3-19,2-21c4-3,8-24,9-48s7-45,12-46c6-2,7-8,4-13c-3-6-2-15,3-22s22-48,38-92
		c37-105,114-261,167-338c23-34,52-77,65-96c24-35,30-75,13-86c-6-4-8-11-5-16c9-14-12-11-27,4c-7,7-17,15-23,16c-5,2-9,7-8,12
		c2,5-1,9-7,9c-5,0-40,38-76,85c-37,47-69,85-71,85c-3,0,9-25,26-55c18-31,29-60,26-65s0-12,6-16c8-5,9-3,4,6s-4,11,4,6
		c7-4,10-13,8-19s10-26,26-43c16-18,29-36,29-41c-1-4,9-13,21-20s18-12,13-13c-4,0,6-14,23-32c17-17,31-40,31-49c0-10,5-21,10-24
		c6-4,8-11,5-16c-4-5-1-9,6-9s9-3,6-6c-4-4,2-19,12-33c23-33,47-93,42-106c-3-11-9-54-15-118c-4-31-2-36,9-27c12,10,38,71,40,92
		c0,13,16,21,39,23c14,0,23-2,20-6c-4-7,52-34,70-34c13,0,17-27,19-133c1-55,6-91,12-90c6,2,9,6,7,11c-1,4,3,7,9,7s8,13,5,30
		c-2,18,0,30,7,30c5,0,7,3,4,7c-4,3-2,12,4,19c9,11,17,10,43-3c17-10,34-18,39-19c4-1,10-3,15-4c4-1,11-2,15-1c5,1,6-3,2-9
		c-5-8,9-15,18-8c1,1,14-9,28-22c21-21,26-34,26-80c0-30-3-59-7-65c-12-16-6-98,8-103c8-2,10,2,5,14c-5,13-3,15,8,9c8-4,11-4,6,0
		c-4,5-1,18,7,29c7,12,11,31,10,44c-2,13,0,21,5,18c4-3,7,10,5,29c-1,18,3,41,10,51c13,17,57,21,96,9c11-4,20-2,20,4
		c0,20,59,12,70-8c5-11,10-77,11-148l1-128l19,60c11,33,22,93,26,133c7,87,14,93,85,67c44-15,57-16,105-5c35,7,59,8,65,2
		c5-5,11-36,13-68c5-102,19-220,23-201c2,9,8,17,13,17s7,11,5,25c-3,13-1,27,3,30c5,2,7,19,6,37s2,38,7,44c4,6,7,22,5,34
		c-5,31,23,61,42,46c11-8,13-8,7,2c-4,7,11,3,33-9c50-26,112-22,166,9c68,41,67,41,80-188c3-58,10-107,16-108c5-2,6-9,3-15
		c-4-7,0-5,9,3c16,15,20,36,38,205c6,55,14,104,18,108c5,4,30-4,57-18c55-30,95-30,158,0c55,26,63,18,70-77c4-46,12-107,17-137
		c17-85,32-48,41,101c4,72,12,136,17,141c7,7,29,3,66-11c67-26,162-29,205-7c28,15,29,14,38-18c6-17,13-55,15-83c7-62,33-128,47-119
		c6,4,10,55,10,123c0,64,4,123,9,131c6,9,18,12,32,8c80-20,82-20,125,4c55,29,63,22,74-62c9-75,27-119,48-119c13,0,14,16,8,109
		c-8,122-10,117,64,139c103,30,96,33,121-52c12-41,26-73,32-69c5,3,8,48,6,107l-4,101l55,27c30,15,61,26,69,25s20-18,26-37
		c18-55,30-41,33,39c3,72,4,76,47,123c43,48,47,59,60,146c5,32,21,60,62,110c108,130,186,263,166,283c-6,6-38-26-90-93
		c-102-130-118-145-138-128c-8,7-15,18-15,24s31,55,69,109c86,121,158,260,205,394c45,129,102,386,116,523c15,139,26,180,49,180
		c10,0,24-7,32-16c16-19,5-104-46-363c-37-184-42-235-23-229c20,7,74,168,118,353c24,99,48,186,53,193c14,18,51,15,75-8
		c26-24,26-20,7-135c-16-94-20-597-6-660c14-61,29,7,45,210c30,356,53,528,74,562c10,17,121,38,133,26c6-6,3-63-6-139
		c-8-71-15-181-15-244c0-131,26-480,40-555c18-87,25-469,10-533c-32-145-92-232-318-465c-207-212-316-338-466-535
		c-60-78-115-142-122-142c-9,0-14,11-14,29c0,39,44,188,86,291c24,60,31,87,23,95c-32,31-162-203-198-355c-11-47-32-137-46-200
		c-84-361-310-519-887-621c-181-32-187-33-513-34c-181,0-334,2-340,4c-5,3-21,7-35,8c-74,7-129,13-160,18c-19,3-53,7-75,10
		c-61,6-127,22-246,61c-140,45-209,76-289,129c-166,111-232,228-295,525c-15,69-38,154-52,190s-25,71-26,78c0,6-4,12-8,12
		c-5,0-5,7-2,17c4,11,3,14-5,9c-7-4-13-1-13,6c-4,39-18,70-30,62c-5-3-6,1-3,9c7,19-66,81-80,67c-6-6-4-16,7-27c8-10,15-20,15-23
		c-3-15,15-49,23-45c5,3,6-1,3-9c-4-10-1-16,7-16c7,0,9-3,6-7c-4-3-1-13,6-21c10-13,9-14-1-8c-11,7-11,4,0-15c7-13,17-27,21-30
		c5-3,8-8,7-10s1-11,4-19c16-48,26-101,26-142c0-44-2-48-24-48c-25,0-37,14-82,97c-15,26-31,53-37,58c-7,7-7,5-2-5c5-9,4-12-1-7
		s-9,12-9,15c0,16-47,81-57,79c-6-1-12,6-13,15c-2,10-15,28-29,41s-26,29-26,35c0,5-16,24-35,41s-35,35-35,40s-18,25-40,45
		s-37,36-34,36c4,0-69,78-162,173c-238,243-299,330-339,487c-24,92-22,295,4,491c12,85,23,194,26,242c2,48,7,92,10,98c4,5,5,34,4,64
		s0,58,4,62c9,8,9,207,1,216c-3,3-8,38-10,78c-2,39-9,100-14,134c-12,73-6,95,24,95c41-1,101-19,112-35c12-16,32-111,40-190
		c2-22,7-56,11-75c8-47,12-89,17-185c2-44,5-80,6-80s4-34,6-75s5-88,7-105c3-16,5-36,6-42c0-7,5-13,9-13c9,0,9-1,18,85
		c9,89,12,375,5,380c-4,2-5,32-4,67c2,35,0,70-3,78s-7,38-9,65c-1,28-6,58-10,67c-9,23,36,68,69,68c22,0,27-7,41-52
		c8-28,15-58,15-65s3-13,8-13c4,0,8-12,8-27c1-16,4-39,8-53c3-14,11-48,17-77c7-29,16-50,20-47c4,2,8-4,7-13c0-24,8-58,21-81
		c6-11,7-22,4-26c-3-3-1-6,5-6c7,0,12-4,12-9s5-22,12-38l11-28l7,40c4,22,4,42-1,45s-7,16-4,28c2,12,0,22-5,22c-4,0-6,10-2,22
		c3,13,1,19-6,15c-6-5-9,3-7,20c2,16,0,32-3,37c-3,6-7,24-8,40c-3,28-10,64-14,76c-1,3-2,9-1,13c1,5-6,49-15,97c-12,67-13,93-5,109
		C1953,122.8,1995,124.8,2005,100.8z M2534-507.2c0-38-27-192-42-245c-4-14-14-25-22-25c-33,0-22,191,16,283
		C2506-445.2,2535-454.2,2534-507.2z M4207-603.2c51-24,68-63,83-189c33-279-9-352-196-337c-85,8-132,26-153,59c-34,54-29,362,6,418
		C3996-576.2,4105-555.2,4207-603.2z M3741-593.2c67-21,81-45,91-162c6-63,6-144,0-206c-13-143-13-143-181-145c-119-1-132,1-151,19
		c-33,33-51,142-44,270c6,124,24,186,58,204C3569-583.2,3676-574.2,3741-593.2z M2637-604.2c9-12-10-272-22-305c-8-23-32-13-45,18
		c-11,25-11,53-1,142C2583-618.2,2608-566.2,2637-604.2z M3354-603.2c31-15,36-33,24-105c-10-58-4-278,8-341c7-37,14-34-127-52
		c-157-20-169,0-144,242c19,182,33,229,78,251C3230-590.2,3318-587.2,3354-603.2z M4570-613.2c14-5,36-26,50-46c23-34,25-47,29-171
		c4-158-7-210-53-250c-38-33-105-57-139-49c-13,4-35,18-49,32c-25,25-26,32-33,180c-9,182-3,234,31,275
		C4446-595.2,4501-585.2,4570-613.2z M4877-598.2c38-10,48-55,34-155c-14-108-46-253-66-296c-16-36-62-54-105-43c-29,8-29,11-12,139
		c9,62,9,109,1,177c-15,123-11,136,48,162C4828-591.2,4843-589.2,4877-598.2z M5047-669.2c14-41-21-335-45-381c-22-42-52-65-71-53
		c-11,7-11,15-2,42c21,59,71,315,71,361c0,42,15,72,31,63C5035-640.2,5042-654.2,5047-669.2z M5173-693.2c5-19,7-95,5-169
		c-5-151-22-210-57-210c-18,0-21,6-21,43c0,23,7,85,15,137s15,125,15,161s3,69,7,73C5150-645.2,5164-659.2,5173-693.2z M5302-722.2
		c8-72,0-222-13-258c-5-13-14-22-20-20c-8,3-14,210-9,339c0,6,8,9,18,7C5291-656.2,5297-672.2,5302-722.2z M2779-681.2
		c7-12,7-63,1-152c-6-74-7-153-4-175c4-25,2-44-5-48c-19-12-50,14-61,52c-13,47-2,265,16,310C2741-658.2,2764-652.2,2779-681.2z
		 M2520-1066.2c0-8-7-22-16-31c-22-22-40-5-25,24C2492-1049.2,2520-1045.2,2520-1066.2z M5386-1110.2c28-19,36-55,29-136
		c-8-85-23-84-24,2c-1,27-10,59-26,86c-14,24-22,46-18,49C5355-1100.2,5372-1100.2,5386-1110.2z M2670-1122.2c21,0,16-32-10-65
		c-36-45-46-107-30-175c14-57,5-76-27-66s-46,55-51,159c-4,91-3,100,18,122c23,24,53,35,78,29C2656-1120.2,2665-1122.2,2670-1122.2z
		 M5274-1177.2c43-28,49-60,32-173c-9-56-23-113-32-127c-15-23-43-33-56-20c-2,3,1,53,9,112c7,60,11,129,7,155c-5,43-1,68,12,68
		C5249-1162.2,5261-1169.2,5274-1177.2z M3413-1221.2c21-20,22-31,25-229l3-207l-31-32c-20-22-41-33-58-33c-35,0-98,42-116,78
		c-37,73-66,329-44,392c11,29,20,37,58,47C3315-1187.2,3387-1194.2,3413-1221.2z M3822-1222.2c19-24,20-36,16-215
		c-4-170-6-194-26-231c-41-80-127-111-201-72c-79,41-80,46-87,278c-6,199-6,206,15,232c26,32,47,36,169,34
		C3795-1197.2,3803-1199.2,3822-1222.2z M5151-1219.2c21-55-20-323-55-362c-27-30-68-41-90-25c-17,12-17,19-6,103c12,84,9,201-6,279
		l-6,32h76C5138-1192.2,5141-1193.2,5151-1219.2z M4162-1223.2c9-5,26-21,37-35c19-25,21-40,21-193c0-187-9-218-73-280
		c-33-31-40-33-84-28c-39,4-54,12-84,44l-36,39l-8,166c-8,183-3,238,25,263C4003-1208.2,4109-1196.2,4162-1223.2z M4888-1222.2
		c11-11,24-37,27-57c3-21,8-50,10-65c6-35-22-255-36-290c-14-34-89-73-121-63c-33,11-47,24-68,66c-16,30-20,68-25,205
		c-4,93-3,174,2,180C4710-1201.2,4848-1185.2,4888-1222.2z M3052-1227.2c53-7,60-17,52-78c-4-24,1-102,11-174c18-143,15-159-30-189
		c-58-38-121,16-160,138c-27,83-43,216-32,259c8,31,55,60,87,55C2994-1219.2,3026-1223.2,3052-1227.2z M2812-1347.2
		c5-78,14-141,28-179c25-74,25-76-3-76c-24,0-58,26-81,63c-21,32-46,157-46,226c0,71,16,94,64,89l31-3L2812-1347.2z"/>
	<path d="M3855,2248.8c-93-42-141-108-208-281c-71-183-139-343-236-552c-50-107-105-237-123-289c-31-90-32-101-33-249v-155l33-67
		c57-117,170-198,275-198c125,0,247,128,282,296c7,36,19,143,25,237c28,436,32,471,66,484c43,16,62-76,74-376c6-136,17-277,26-320
		c52-258,222-380,402-291c105,53,170,148,191,278c6,35,15,70,22,78c16,20,49,18,50-3c7-100-22-220-71-293c-56-84-23-104,46-28
		s120,240,108,345c-6,49-6,51,46,108c92,102,115,194,64,255c-37,43-75,60-137,60c-76,0-119-16-115-44c3-22,13-23,90-10
		c49,8,78,0,111-30c40-38,37-81-13-147c-22-30-59-69-83-88c-79-64-226-116-289-104c-30,6-88,64-88,89c0,44,88,164,121,164
		c28,0,23-18-22-83c-62-89-41-128,63-114c108,14,288,150,288,217c0,41-37,65-87,55c-64-12-76-34-51-101c13-37,0-64-33-64
		c-22,0-32,18-48,84c-7,27-68,171-136,321c-118,259-165,368-250,589C4137,2221.8,3993,2311.8,3855,2248.8z M3745,670.8
		c-9-37-69-110-107-129c-38-20-128-20-165-1c-40,21-88,72-103,107c-14,34-4,55,12,27c5-10,37-38,70-63c89-65,126-61,228,30
		c34,31,65,56,67,56C3750,697.8,3749,685.8,3745,670.8z M4516,654.8c-17-69-108-130-192-129c-32,0-65,7-79,16c-45,29-95,89-95,113
		c0,30,11,29,41-3c38-42,110-84,144-84c36,0,116,47,152,91C4515,691.8,4525,690.8,4516,654.8z"/>
	<path d="M3200,1185.8c-79-82-121-361-77-508c22-75,75-159,116-187c54-37,58-14,13,64c-57,95-76,174-75,308c0,83,6,138,26,224
		c15,63,25,116,23,118C3224,1207.8,3212,1198.8,3200,1185.8z"/>
	<path d="M3711,411.8c-30-16-60-24-92-24c-70,0-78-21-34-87c19-28,40-75,48-104c10-42,18-54,32-54c16,0,26,19,51,92
		c17,50,43,112,58,137C3815,441.8,3792,456.8,3711,411.8z"/>
	<path d="M4090,426.8c0-7,15-44,34-83s44-104,55-143c28-95,48-95,72,0c6,26,24,65,40,87s30,50,32,62c2,19-6,23-62,35
		c-36,7-80,22-98,33C4125,439.8,4090,443.8,4090,426.8z"/>
</g>
</svg>
